<svg width="1920" height="1080" viewBox="0 0 1920 1080" fill="none" xmlns="http://www.w3.org/2000/svg">
<rect width="1920" height="1080" fill="#FFFAFB"/>
<g opacity="0.03">
<path fill-rule="evenodd" clip-rule="evenodd" d="M148.729 33.0731C147.282 33.0731 146.073 34.2822 146.073 35.7292V68.9653L153.153 61.8851C154.286 60.753 155.821 60.117 157.422 60.117H183.5C184.204 60.117 184.88 59.8372 185.378 59.3391C185.876 58.8409 186.156 58.1653 186.156 57.4609V35.7292C186.156 35.0248 185.876 34.3492 185.378 33.8511C184.88 33.353 184.204 33.0731 183.5 33.0731H148.729ZM134 35.7292C134 27.6144 140.614 21 148.729 21H183.5C187.406 21 191.153 22.5518 193.915 25.3141C196.677 28.0764 198.229 31.8228 198.229 35.7292V57.4609C198.229 61.3674 196.677 65.1138 193.915 67.8761C191.153 70.6383 187.406 72.1902 183.5 72.1902H159.922L144.305 87.8074C142.579 89.5339 139.982 90.0503 137.726 89.116C135.471 88.1816 134 85.9805 134 83.5389V35.7292ZM203.541 57.4609C203.541 54.127 206.244 51.4243 209.578 51.4243H218.271C222.177 51.4243 225.924 52.9762 228.686 55.7384C231.448 58.5007 233 62.2472 233 66.1536V113.963C233 116.405 231.529 118.606 229.274 119.54C227.018 120.475 224.421 119.958 222.695 118.232L207.078 102.614H183.5C179.594 102.614 175.847 101.063 173.085 98.3004C170.323 95.5381 168.771 91.7917 168.771 87.8853V83.5389C168.771 80.205 171.473 77.5023 174.807 77.5023C178.141 77.5023 180.844 80.205 180.844 83.5389V87.8853C180.844 88.5897 181.124 89.2653 181.622 89.7634C182.12 90.2615 182.796 90.5414 183.5 90.5414H209.578C211.179 90.5414 212.714 91.1773 213.847 92.3094L220.927 99.3897V66.1536C220.927 65.4491 220.647 64.7735 220.149 64.2754C219.651 63.7773 218.975 63.4975 218.271 63.4975H209.578C206.244 63.4975 203.541 60.7948 203.541 57.4609Z" fill="#1B2973"/>
<path fill-rule="evenodd" clip-rule="evenodd" d="M49.7293 193.073C48.2822 193.073 47.0732 194.282 47.0732 195.729V228.965L54.1534 221.885C55.2855 220.753 56.821 220.117 58.422 220.117H84.5C85.2044 220.117 85.88 219.837 86.3781 219.339C86.8763 218.841 87.1561 218.165 87.1561 217.461V195.729C87.1561 195.025 86.8763 194.349 86.3781 193.851C85.88 193.353 85.2044 193.073 84.5 193.073H49.7293ZM35 195.729C35 187.614 41.6144 181 49.7293 181H84.5C88.4064 181 92.1529 182.552 94.9152 185.314C97.6774 188.076 99.2293 191.823 99.2293 195.729V217.461C99.2293 221.367 97.6774 225.114 94.9152 227.876C92.1529 230.638 88.4064 232.19 84.5 232.19H60.9224L45.3051 247.807C43.5786 249.534 40.9822 250.05 38.7265 249.116C36.4708 248.182 35 245.98 35 243.539V195.729ZM104.541 217.461C104.541 214.127 107.244 211.424 110.578 211.424H119.271C123.177 211.424 126.924 212.976 129.686 215.738C132.448 218.501 134 222.247 134 226.154V273.963C134 276.405 132.529 278.606 130.274 279.54C128.018 280.475 125.421 279.958 123.695 278.232L108.078 262.614H84.5C80.5935 262.614 76.8471 261.063 74.0848 258.3C71.3226 255.538 69.7707 251.792 69.7707 247.885V243.539C69.7707 240.205 72.4734 237.502 75.8073 237.502C79.1412 237.502 81.8439 240.205 81.8439 243.539V247.885C81.8439 248.59 82.1237 249.265 82.6219 249.763C83.12 250.262 83.7956 250.541 84.5 250.541H110.578C112.179 250.541 113.714 251.177 114.847 252.309L121.927 259.39V226.154C121.927 225.449 121.647 224.774 121.149 224.275C120.651 223.777 119.975 223.497 119.271 223.497H110.578C107.244 223.497 104.541 220.795 104.541 217.461Z" fill="#1B2973"/>
<path fill-rule="evenodd" clip-rule="evenodd" d="M49.7293 513.073C48.2822 513.073 47.0732 514.282 47.0732 515.729V548.965L54.1534 541.885C55.2855 540.753 56.821 540.117 58.422 540.117H84.5C85.2044 540.117 85.88 539.837 86.3781 539.339C86.8763 538.841 87.1561 538.165 87.1561 537.461V515.729C87.1561 515.025 86.8763 514.349 86.3781 513.851C85.88 513.353 85.2044 513.073 84.5 513.073H49.7293ZM35 515.729C35 507.614 41.6144 501 49.7293 501H84.5C88.4064 501 92.1529 502.552 94.9152 505.314C97.6774 508.076 99.2293 511.823 99.2293 515.729V537.461C99.2293 541.367 97.6774 545.114 94.9152 547.876C92.1529 550.638 88.4064 552.19 84.5 552.19H60.9224L45.3051 567.807C43.5786 569.534 40.9822 570.05 38.7265 569.116C36.4708 568.182 35 565.98 35 563.539V515.729ZM104.541 537.461C104.541 534.127 107.244 531.424 110.578 531.424H119.271C123.177 531.424 126.924 532.976 129.686 535.738C132.448 538.501 134 542.247 134 546.154V593.963C134 596.405 132.529 598.606 130.274 599.54C128.018 600.475 125.421 599.958 123.695 598.232L108.078 582.614H84.5C80.5935 582.614 76.8471 581.063 74.0848 578.3C71.3226 575.538 69.7707 571.792 69.7707 567.885V563.539C69.7707 560.205 72.4734 557.502 75.8073 557.502C79.1412 557.502 81.8439 560.205 81.8439 563.539V567.885C81.8439 568.59 82.1237 569.265 82.6219 569.763C83.12 570.262 83.7956 570.541 84.5 570.541H110.578C112.179 570.541 113.714 571.177 114.847 572.309L121.927 579.39V546.154C121.927 545.449 121.647 544.774 121.149 544.275C120.651 543.777 119.975 543.497 119.271 543.497H110.578C107.244 543.497 104.541 540.795 104.541 537.461Z" fill="#1B2973"/>
<path fill-rule="evenodd" clip-rule="evenodd" d="M28.7293 833.073C27.2822 833.073 26.0732 834.282 26.0732 835.729V868.965L33.1534 861.885C34.2855 860.753 35.821 860.117 37.422 860.117H63.5C64.2044 860.117 64.88 859.837 65.3781 859.339C65.8763 858.841 66.1561 858.165 66.1561 857.461V835.729C66.1561 835.025 65.8763 834.349 65.3781 833.851C64.88 833.353 64.2044 833.073 63.5 833.073H28.7293ZM14 835.729C14 827.614 20.6144 821 28.7293 821H63.5C67.4064 821 71.1529 822.552 73.9152 825.314C76.6774 828.076 78.2293 831.823 78.2293 835.729V857.461C78.2293 861.367 76.6774 865.114 73.9152 867.876C71.1529 870.638 67.4064 872.19 63.5 872.19H39.9224L24.3051 887.807C22.5786 889.534 19.9822 890.05 17.7265 889.116C15.4708 888.182 14 885.98 14 883.539V835.729ZM83.5415 857.461C83.5415 854.127 86.2441 851.424 89.5781 851.424H98.2707C102.177 851.424 105.924 852.976 108.686 855.738C111.448 858.501 113 862.247 113 866.154V913.963C113 916.405 111.529 918.606 109.274 919.54C107.018 920.475 104.421 919.958 102.695 918.232L87.0776 902.614H63.5C59.5935 902.614 55.8471 901.063 53.0848 898.3C50.3226 895.538 48.7707 891.792 48.7707 887.885V883.539C48.7707 880.205 51.4734 877.502 54.8073 877.502C58.1412 877.502 60.8439 880.205 60.8439 883.539V887.885C60.8439 888.59 61.1237 889.265 61.6219 889.763C62.12 890.262 62.7956 890.541 63.5 890.541H89.5781C91.1791 890.541 92.7145 891.177 93.8466 892.309L100.927 899.39V866.154C100.927 865.449 100.647 864.774 100.149 864.275C99.6508 863.777 98.9752 863.497 98.2707 863.497H89.5781C86.2441 863.497 83.5415 860.795 83.5415 857.461Z" fill="#1B2973"/>
<path fill-rule="evenodd" clip-rule="evenodd" d="M148.729 353.073C147.282 353.073 146.073 354.282 146.073 355.729V388.965L153.153 381.885C154.286 380.753 155.821 380.117 157.422 380.117H183.5C184.204 380.117 184.88 379.837 185.378 379.339C185.876 378.841 186.156 378.165 186.156 377.461V355.729C186.156 355.025 185.876 354.349 185.378 353.851C184.88 353.353 184.204 353.073 183.5 353.073H148.729ZM134 355.729C134 347.614 140.614 341 148.729 341H183.5C187.406 341 191.153 342.552 193.915 345.314C196.677 348.076 198.229 351.823 198.229 355.729V377.461C198.229 381.367 196.677 385.114 193.915 387.876C191.153 390.638 187.406 392.19 183.5 392.19H159.922L144.305 407.807C142.579 409.534 139.982 410.05 137.726 409.116C135.471 408.182 134 405.98 134 403.539V355.729ZM203.541 377.461C203.541 374.127 206.244 371.424 209.578 371.424H218.271C222.177 371.424 225.924 372.976 228.686 375.738C231.448 378.501 233 382.247 233 386.154V433.963C233 436.405 231.529 438.606 229.274 439.54C227.018 440.475 224.421 439.958 222.695 438.232L207.078 422.614H183.5C179.594 422.614 175.847 421.063 173.085 418.3C170.323 415.538 168.771 411.792 168.771 407.885V403.539C168.771 400.205 171.473 397.502 174.807 397.502C178.141 397.502 180.844 400.205 180.844 403.539V407.885C180.844 408.59 181.124 409.265 181.622 409.763C182.12 410.262 182.796 410.541 183.5 410.541H209.578C211.179 410.541 212.714 411.177 213.847 412.309L220.927 419.39V386.154C220.927 385.449 220.647 384.774 220.149 384.275C219.651 383.777 218.975 383.497 218.271 383.497H209.578C206.244 383.497 203.541 380.795 203.541 377.461Z" fill="#1B2973"/>
<path fill-rule="evenodd" clip-rule="evenodd" d="M148.729 673.073C147.282 673.073 146.073 674.282 146.073 675.729V708.965L153.153 701.885C154.286 700.753 155.821 700.117 157.422 700.117H183.5C184.204 700.117 184.88 699.837 185.378 699.339C185.876 698.841 186.156 698.165 186.156 697.461V675.729C186.156 675.025 185.876 674.349 185.378 673.851C184.88 673.353 184.204 673.073 183.5 673.073H148.729ZM134 675.729C134 667.614 140.614 661 148.729 661H183.5C187.406 661 191.153 662.552 193.915 665.314C196.677 668.076 198.229 671.823 198.229 675.729V697.461C198.229 701.367 196.677 705.114 193.915 707.876C191.153 710.638 187.406 712.19 183.5 712.19H159.922L144.305 727.807C142.579 729.534 139.982 730.05 137.726 729.116C135.471 728.182 134 725.98 134 723.539V675.729ZM203.541 697.461C203.541 694.127 206.244 691.424 209.578 691.424H218.271C222.177 691.424 225.924 692.976 228.686 695.738C231.448 698.501 233 702.247 233 706.154V753.963C233 756.405 231.529 758.606 229.274 759.54C227.018 760.475 224.421 759.958 222.695 758.232L207.078 742.614H183.5C179.594 742.614 175.847 741.063 173.085 738.3C170.323 735.538 168.771 731.792 168.771 727.885V723.539C168.771 720.205 171.473 717.502 174.807 717.502C178.141 717.502 180.844 720.205 180.844 723.539V727.885C180.844 728.59 181.124 729.265 181.622 729.763C182.12 730.262 182.796 730.541 183.5 730.541H209.578C211.179 730.541 212.714 731.177 213.847 732.309L220.927 739.39V706.154C220.927 705.449 220.647 704.774 220.149 704.275C219.651 703.777 218.975 703.497 218.271 703.497H209.578C206.244 703.497 203.541 700.795 203.541 697.461Z" fill="#1B2973"/>
<path fill-rule="evenodd" clip-rule="evenodd" d="M1343.73 53.0731C1342.28 53.0731 1341.07 54.2822 1341.07 55.7292V88.9653L1348.15 81.8851C1349.29 80.753 1350.82 80.117 1352.42 80.117H1378.5C1379.2 80.117 1379.88 79.8372 1380.38 79.3391C1380.88 78.8409 1381.16 78.1653 1381.16 77.4609V55.7292C1381.16 55.0248 1380.88 54.3492 1380.38 53.8511C1379.88 53.353 1379.2 53.0731 1378.5 53.0731H1343.73ZM1329 55.7292C1329 47.6144 1335.61 41 1343.73 41H1378.5C1382.41 41 1386.15 42.5518 1388.92 45.3141C1391.68 48.0764 1393.23 51.8228 1393.23 55.7292V77.4609C1393.23 81.3674 1391.68 85.1138 1388.92 87.8761C1386.15 90.6383 1382.41 92.1902 1378.5 92.1902H1354.92L1339.31 107.807C1337.58 109.534 1334.98 110.05 1332.73 109.116C1330.47 108.182 1329 105.98 1329 103.539V55.7292ZM1398.54 77.4609C1398.54 74.127 1401.24 71.4243 1404.58 71.4243H1413.27C1417.18 71.4243 1420.92 72.9762 1423.69 75.7384C1426.45 78.5007 1428 82.2472 1428 86.1536V133.963C1428 136.405 1426.53 138.606 1424.27 139.54C1422.02 140.475 1419.42 139.958 1417.69 138.232L1402.08 122.614H1378.5C1374.59 122.614 1370.85 121.063 1368.08 118.3C1365.32 115.538 1363.77 111.792 1363.77 107.885V103.539C1363.77 100.205 1366.47 97.5023 1369.81 97.5023C1373.14 97.5023 1375.84 100.205 1375.84 103.539V107.885C1375.84 108.59 1376.12 109.265 1376.62 109.763C1377.12 110.262 1377.8 110.541 1378.5 110.541H1404.58C1406.18 110.541 1407.71 111.177 1408.85 112.309L1415.93 119.39V86.1536C1415.93 85.4491 1415.65 84.7735 1415.15 84.2754C1414.65 83.7773 1413.98 83.4975 1413.27 83.4975H1404.58C1401.24 83.4975 1398.54 80.7948 1398.54 77.4609Z" fill="#1B2973"/>
<path fill-rule="evenodd" clip-rule="evenodd" d="M1244.73 213.073C1243.28 213.073 1242.07 214.282 1242.07 215.729V248.965L1249.15 241.885C1250.29 240.753 1251.82 240.117 1253.42 240.117H1279.5C1280.2 240.117 1280.88 239.837 1281.38 239.339C1281.88 238.841 1282.16 238.165 1282.16 237.461V215.729C1282.16 215.025 1281.88 214.349 1281.38 213.851C1280.88 213.353 1280.2 213.073 1279.5 213.073H1244.73ZM1230 215.729C1230 207.614 1236.61 201 1244.73 201H1279.5C1283.41 201 1287.15 202.552 1289.92 205.314C1292.68 208.076 1294.23 211.823 1294.23 215.729V237.461C1294.23 241.367 1292.68 245.114 1289.92 247.876C1287.15 250.638 1283.41 252.19 1279.5 252.19H1255.92L1240.31 267.807C1238.58 269.534 1235.98 270.05 1233.73 269.116C1231.47 268.182 1230 265.98 1230 263.539V215.729ZM1299.54 237.461C1299.54 234.127 1302.24 231.424 1305.58 231.424H1314.27C1318.18 231.424 1321.92 232.976 1324.69 235.738C1327.45 238.501 1329 242.247 1329 246.154V293.963C1329 296.405 1327.53 298.606 1325.27 299.54C1323.02 300.475 1320.42 299.958 1318.69 298.232L1303.08 282.614H1279.5C1275.59 282.614 1271.85 281.063 1269.08 278.3C1266.32 275.538 1264.77 271.792 1264.77 267.885V263.539C1264.77 260.205 1267.47 257.502 1270.81 257.502C1274.14 257.502 1276.84 260.205 1276.84 263.539V267.885C1276.84 268.59 1277.12 269.265 1277.62 269.763C1278.12 270.262 1278.8 270.541 1279.5 270.541H1305.58C1307.18 270.541 1308.71 271.177 1309.85 272.309L1316.93 279.39V246.154C1316.93 245.449 1316.65 244.774 1316.15 244.275C1315.65 243.777 1314.98 243.497 1314.27 243.497H1305.58C1302.24 243.497 1299.54 240.795 1299.54 237.461Z" fill="#1B2973"/>
<path fill-rule="evenodd" clip-rule="evenodd" d="M1244.73 533.073C1243.28 533.073 1242.07 534.282 1242.07 535.729V568.965L1249.15 561.885C1250.29 560.753 1251.82 560.117 1253.42 560.117H1279.5C1280.2 560.117 1280.88 559.837 1281.38 559.339C1281.88 558.841 1282.16 558.165 1282.16 557.461V535.729C1282.16 535.025 1281.88 534.349 1281.38 533.851C1280.88 533.353 1280.2 533.073 1279.5 533.073H1244.73ZM1230 535.729C1230 527.614 1236.61 521 1244.73 521H1279.5C1283.41 521 1287.15 522.552 1289.92 525.314C1292.68 528.076 1294.23 531.823 1294.23 535.729V557.461C1294.23 561.367 1292.68 565.114 1289.92 567.876C1287.15 570.638 1283.41 572.19 1279.5 572.19H1255.92L1240.31 587.807C1238.58 589.534 1235.98 590.05 1233.73 589.116C1231.47 588.182 1230 585.98 1230 583.539V535.729ZM1299.54 557.461C1299.54 554.127 1302.24 551.424 1305.58 551.424H1314.27C1318.18 551.424 1321.92 552.976 1324.69 555.738C1327.45 558.501 1329 562.247 1329 566.154V613.963C1329 616.405 1327.53 618.606 1325.27 619.54C1323.02 620.475 1320.42 619.958 1318.69 618.232L1303.08 602.614H1279.5C1275.59 602.614 1271.85 601.063 1269.08 598.3C1266.32 595.538 1264.77 591.792 1264.77 587.885V583.539C1264.77 580.205 1267.47 577.502 1270.81 577.502C1274.14 577.502 1276.84 580.205 1276.84 583.539V587.885C1276.84 588.59 1277.12 589.265 1277.62 589.763C1278.12 590.262 1278.8 590.541 1279.5 590.541H1305.58C1307.18 590.541 1308.71 591.177 1309.85 592.309L1316.93 599.39V566.154C1316.93 565.449 1316.65 564.774 1316.15 564.275C1315.65 563.777 1314.98 563.497 1314.27 563.497H1305.58C1302.24 563.497 1299.54 560.795 1299.54 557.461Z" fill="#1B2973"/>
<path fill-rule="evenodd" clip-rule="evenodd" d="M1223.73 853.073C1222.28 853.073 1221.07 854.282 1221.07 855.729V888.965L1228.15 881.885C1229.29 880.753 1230.82 880.117 1232.42 880.117H1258.5C1259.2 880.117 1259.88 879.837 1260.38 879.339C1260.88 878.841 1261.16 878.165 1261.16 877.461V855.729C1261.16 855.025 1260.88 854.349 1260.38 853.851C1259.88 853.353 1259.2 853.073 1258.5 853.073H1223.73ZM1209 855.729C1209 847.614 1215.61 841 1223.73 841H1258.5C1262.41 841 1266.15 842.552 1268.92 845.314C1271.68 848.076 1273.23 851.823 1273.23 855.729V877.461C1273.23 881.367 1271.68 885.114 1268.92 887.876C1266.15 890.638 1262.41 892.19 1258.5 892.19H1234.92L1219.31 907.807C1217.58 909.534 1214.98 910.05 1212.73 909.116C1210.47 908.182 1209 905.98 1209 903.539V855.729ZM1278.54 877.461C1278.54 874.127 1281.24 871.424 1284.58 871.424H1293.27C1297.18 871.424 1300.92 872.976 1303.69 875.738C1306.45 878.501 1308 882.247 1308 886.154V933.963C1308 936.405 1306.53 938.606 1304.27 939.54C1302.02 940.475 1299.42 939.958 1297.69 938.232L1282.08 922.614H1258.5C1254.59 922.614 1250.85 921.063 1248.08 918.3C1245.32 915.538 1243.77 911.792 1243.77 907.885V903.539C1243.77 900.205 1246.47 897.502 1249.81 897.502C1253.14 897.502 1255.84 900.205 1255.84 903.539V907.885C1255.84 908.59 1256.12 909.265 1256.62 909.763C1257.12 910.262 1257.8 910.541 1258.5 910.541H1284.58C1286.18 910.541 1287.71 911.177 1288.85 912.309L1295.93 919.39V886.154C1295.93 885.449 1295.65 884.774 1295.15 884.275C1294.65 883.777 1293.98 883.497 1293.27 883.497H1284.58C1281.24 883.497 1278.54 880.795 1278.54 877.461Z" fill="#1B2973"/>
<path fill-rule="evenodd" clip-rule="evenodd" d="M1343.73 373.073C1342.28 373.073 1341.07 374.282 1341.07 375.729V408.965L1348.15 401.885C1349.29 400.753 1350.82 400.117 1352.42 400.117H1378.5C1379.2 400.117 1379.88 399.837 1380.38 399.339C1380.88 398.841 1381.16 398.165 1381.16 397.461V375.729C1381.16 375.025 1380.88 374.349 1380.38 373.851C1379.88 373.353 1379.2 373.073 1378.5 373.073H1343.73ZM1329 375.729C1329 367.614 1335.61 361 1343.73 361H1378.5C1382.41 361 1386.15 362.552 1388.92 365.314C1391.68 368.076 1393.23 371.823 1393.23 375.729V397.461C1393.23 401.367 1391.68 405.114 1388.92 407.876C1386.15 410.638 1382.41 412.19 1378.5 412.19H1354.92L1339.31 427.807C1337.58 429.534 1334.98 430.05 1332.73 429.116C1330.47 428.182 1329 425.98 1329 423.539V375.729ZM1398.54 397.461C1398.54 394.127 1401.24 391.424 1404.58 391.424H1413.27C1417.18 391.424 1420.92 392.976 1423.69 395.738C1426.45 398.501 1428 402.247 1428 406.154V453.963C1428 456.405 1426.53 458.606 1424.27 459.54C1422.02 460.475 1419.42 459.958 1417.69 458.232L1402.08 442.614H1378.5C1374.59 442.614 1370.85 441.063 1368.08 438.3C1365.32 435.538 1363.77 431.792 1363.77 427.885V423.539C1363.77 420.205 1366.47 417.502 1369.81 417.502C1373.14 417.502 1375.84 420.205 1375.84 423.539V427.885C1375.84 428.59 1376.12 429.265 1376.62 429.763C1377.12 430.262 1377.8 430.541 1378.5 430.541H1404.58C1406.18 430.541 1407.71 431.177 1408.85 432.309L1415.93 439.39V406.154C1415.93 405.449 1415.65 404.774 1415.15 404.275C1414.65 403.777 1413.98 403.497 1413.27 403.497H1404.58C1401.24 403.497 1398.54 400.795 1398.54 397.461Z" fill="#1B2973"/>
<path fill-rule="evenodd" clip-rule="evenodd" d="M1322.73 693.073C1321.28 693.073 1320.07 694.282 1320.07 695.729V728.965L1327.15 721.885C1328.29 720.753 1329.82 720.117 1331.42 720.117H1357.5C1358.2 720.117 1358.88 719.837 1359.38 719.339C1359.88 718.841 1360.16 718.165 1360.16 717.461V695.729C1360.16 695.025 1359.88 694.349 1359.38 693.851C1358.88 693.353 1358.2 693.073 1357.5 693.073H1322.73ZM1308 695.729C1308 687.614 1314.61 681 1322.73 681H1357.5C1361.41 681 1365.15 682.552 1367.92 685.314C1370.68 688.076 1372.23 691.823 1372.23 695.729V717.461C1372.23 721.367 1370.68 725.114 1367.92 727.876C1365.15 730.638 1361.41 732.19 1357.5 732.19H1333.92L1318.31 747.807C1316.58 749.534 1313.98 750.05 1311.73 749.116C1309.47 748.182 1308 745.98 1308 743.539V695.729ZM1377.54 717.461C1377.54 714.127 1380.24 711.424 1383.58 711.424H1392.27C1396.18 711.424 1399.92 712.976 1402.69 715.738C1405.45 718.501 1407 722.247 1407 726.154V773.963C1407 776.405 1405.53 778.606 1403.27 779.54C1401.02 780.475 1398.42 779.958 1396.69 778.232L1381.08 762.614H1357.5C1353.59 762.614 1349.85 761.063 1347.08 758.3C1344.32 755.538 1342.77 751.792 1342.77 747.885V743.539C1342.77 740.205 1345.47 737.502 1348.81 737.502C1352.14 737.502 1354.84 740.205 1354.84 743.539V747.885C1354.84 748.59 1355.12 749.265 1355.62 749.763C1356.12 750.262 1356.8 750.541 1357.5 750.541H1383.58C1385.18 750.541 1386.71 751.177 1387.85 752.309L1394.93 759.39V726.154C1394.93 725.449 1394.65 724.774 1394.15 724.275C1393.65 723.777 1392.98 723.497 1392.27 723.497H1383.58C1380.24 723.497 1377.54 720.795 1377.54 717.461Z" fill="#1B2973"/>
<path fill-rule="evenodd" clip-rule="evenodd" d="M865.729 73.0731C864.282 73.0731 863.073 74.2822 863.073 75.7292V108.965L870.153 101.885C871.286 100.753 872.821 100.117 874.422 100.117H900.5C901.204 100.117 901.88 99.8372 902.378 99.3391C902.876 98.8409 903.156 98.1653 903.156 97.4609V75.7292C903.156 75.0248 902.876 74.3492 902.378 73.8511C901.88 73.353 901.204 73.0731 900.5 73.0731H865.729ZM851 75.7292C851 67.6144 857.614 61 865.729 61H900.5C904.406 61 908.153 62.5518 910.915 65.3141C913.677 68.0764 915.229 71.8228 915.229 75.7292V97.4609C915.229 101.367 913.677 105.114 910.915 107.876C908.153 110.638 904.406 112.19 900.5 112.19H876.922L861.305 127.807C859.579 129.534 856.982 130.05 854.726 129.116C852.471 128.182 851 125.98 851 123.539V75.7292ZM920.541 97.4609C920.541 94.127 923.244 91.4243 926.578 91.4243H935.271C939.177 91.4243 942.924 92.9762 945.686 95.7384C948.448 98.5007 950 102.247 950 106.154V153.963C950 156.405 948.529 158.606 946.274 159.54C944.018 160.475 941.421 159.958 939.695 158.232L924.078 142.614H900.5C896.594 142.614 892.847 141.063 890.085 138.3C887.323 135.538 885.771 131.792 885.771 127.885V123.539C885.771 120.205 888.473 117.502 891.807 117.502C895.141 117.502 897.844 120.205 897.844 123.539V127.885C897.844 128.59 898.124 129.265 898.622 129.763C899.12 130.262 899.796 130.541 900.5 130.541H926.578C928.179 130.541 929.714 131.177 930.847 132.309L937.927 139.39V106.154C937.927 105.449 937.647 104.774 937.149 104.275C936.651 103.777 935.975 103.497 935.271 103.497H926.578C923.244 103.497 920.541 100.795 920.541 97.4609Z" fill="#1B2973"/>
<path fill-rule="evenodd" clip-rule="evenodd" d="M766.729 233.073C765.282 233.073 764.073 234.282 764.073 235.729V268.965L771.153 261.885C772.286 260.753 773.821 260.117 775.422 260.117H801.5C802.204 260.117 802.88 259.837 803.378 259.339C803.876 258.841 804.156 258.165 804.156 257.461V235.729C804.156 235.025 803.876 234.349 803.378 233.851C802.88 233.353 802.204 233.073 801.5 233.073H766.729ZM752 235.729C752 227.614 758.614 221 766.729 221H801.5C805.406 221 809.153 222.552 811.915 225.314C814.677 228.076 816.229 231.823 816.229 235.729V257.461C816.229 261.367 814.677 265.114 811.915 267.876C809.153 270.638 805.406 272.19 801.5 272.19H777.922L762.305 287.807C760.579 289.534 757.982 290.05 755.726 289.116C753.471 288.182 752 285.98 752 283.539V235.729ZM821.541 257.461C821.541 254.127 824.244 251.424 827.578 251.424H836.271C840.177 251.424 843.924 252.976 846.686 255.738C849.448 258.501 851 262.247 851 266.154V313.963C851 316.405 849.529 318.606 847.274 319.54C845.018 320.475 842.421 319.958 840.695 318.232L825.078 302.614H801.5C797.594 302.614 793.847 301.063 791.085 298.3C788.323 295.538 786.771 291.792 786.771 287.885V283.539C786.771 280.205 789.473 277.502 792.807 277.502C796.141 277.502 798.844 280.205 798.844 283.539V287.885C798.844 288.59 799.124 289.265 799.622 289.763C800.12 290.262 800.796 290.541 801.5 290.541H827.578C829.179 290.541 830.714 291.177 831.847 292.309L838.927 299.39V266.154C838.927 265.449 838.647 264.774 838.149 264.275C837.651 263.777 836.975 263.497 836.271 263.497H827.578C824.244 263.497 821.541 260.795 821.541 257.461Z" fill="#1B2973"/>
<path fill-rule="evenodd" clip-rule="evenodd" d="M766.729 553.073C765.282 553.073 764.073 554.282 764.073 555.729V588.965L771.153 581.885C772.286 580.753 773.821 580.117 775.422 580.117H801.5C802.204 580.117 802.88 579.837 803.378 579.339C803.876 578.841 804.156 578.165 804.156 577.461V555.729C804.156 555.025 803.876 554.349 803.378 553.851C802.88 553.353 802.204 553.073 801.5 553.073H766.729ZM752 555.729C752 547.614 758.614 541 766.729 541H801.5C805.406 541 809.153 542.552 811.915 545.314C814.677 548.076 816.229 551.823 816.229 555.729V577.461C816.229 581.367 814.677 585.114 811.915 587.876C809.153 590.638 805.406 592.19 801.5 592.19H777.922L762.305 607.807C760.579 609.534 757.982 610.05 755.726 609.116C753.471 608.182 752 605.98 752 603.539V555.729ZM821.541 577.461C821.541 574.127 824.244 571.424 827.578 571.424H836.271C840.177 571.424 843.924 572.976 846.686 575.738C849.448 578.501 851 582.247 851 586.154V633.963C851 636.405 849.529 638.606 847.274 639.54C845.018 640.475 842.421 639.958 840.695 638.232L825.078 622.614H801.5C797.594 622.614 793.847 621.063 791.085 618.3C788.323 615.538 786.771 611.792 786.771 607.885V603.539C786.771 600.205 789.473 597.502 792.807 597.502C796.141 597.502 798.844 600.205 798.844 603.539V607.885C798.844 608.59 799.124 609.265 799.622 609.763C800.12 610.262 800.796 610.541 801.5 610.541H827.578C829.179 610.541 830.714 611.177 831.847 612.309L838.927 619.39V586.154C838.927 585.449 838.647 584.774 838.149 584.275C837.651 583.777 836.975 583.497 836.271 583.497H827.578C824.244 583.497 821.541 580.795 821.541 577.461Z" fill="#1B2973"/>
<path fill-rule="evenodd" clip-rule="evenodd" d="M745.729 873.073C744.282 873.073 743.073 874.282 743.073 875.729V908.965L750.153 901.885C751.286 900.753 752.821 900.117 754.422 900.117H780.5C781.204 900.117 781.88 899.837 782.378 899.339C782.876 898.841 783.156 898.165 783.156 897.461V875.729C783.156 875.025 782.876 874.349 782.378 873.851C781.88 873.353 781.204 873.073 780.5 873.073H745.729ZM731 875.729C731 867.614 737.614 861 745.729 861H780.5C784.406 861 788.153 862.552 790.915 865.314C793.677 868.076 795.229 871.823 795.229 875.729V897.461C795.229 901.367 793.677 905.114 790.915 907.876C788.153 910.638 784.406 912.19 780.5 912.19H756.922L741.305 927.807C739.579 929.534 736.982 930.05 734.726 929.116C732.471 928.182 731 925.98 731 923.539V875.729ZM800.541 897.461C800.541 894.127 803.244 891.424 806.578 891.424H815.271C819.177 891.424 822.924 892.976 825.686 895.738C828.448 898.501 830 902.247 830 906.154V953.963C830 956.405 828.529 958.606 826.274 959.54C824.018 960.475 821.421 959.958 819.695 958.232L804.078 942.614H780.5C776.594 942.614 772.847 941.063 770.085 938.3C767.323 935.538 765.771 931.792 765.771 927.885V923.539C765.771 920.205 768.473 917.502 771.807 917.502C775.141 917.502 777.844 920.205 777.844 923.539V927.885C777.844 928.59 778.124 929.265 778.622 929.763C779.12 930.262 779.796 930.541 780.5 930.541H806.578C808.179 930.541 809.714 931.177 810.847 932.309L817.927 939.39V906.154C817.927 905.449 817.647 904.774 817.149 904.275C816.651 903.777 815.975 903.497 815.271 903.497H806.578C803.244 903.497 800.541 900.795 800.541 897.461Z" fill="#1B2973"/>
<path fill-rule="evenodd" clip-rule="evenodd" d="M865.729 393.073C864.282 393.073 863.073 394.282 863.073 395.729V428.965L870.153 421.885C871.286 420.753 872.821 420.117 874.422 420.117H900.5C901.204 420.117 901.88 419.837 902.378 419.339C902.876 418.841 903.156 418.165 903.156 417.461V395.729C903.156 395.025 902.876 394.349 902.378 393.851C901.88 393.353 901.204 393.073 900.5 393.073H865.729ZM851 395.729C851 387.614 857.614 381 865.729 381H900.5C904.406 381 908.153 382.552 910.915 385.314C913.677 388.076 915.229 391.823 915.229 395.729V417.461C915.229 421.367 913.677 425.114 910.915 427.876C908.153 430.638 904.406 432.19 900.5 432.19H876.922L861.305 447.807C859.579 449.534 856.982 450.05 854.726 449.116C852.471 448.182 851 445.98 851 443.539V395.729ZM920.541 417.461C920.541 414.127 923.244 411.424 926.578 411.424H935.271C939.177 411.424 942.924 412.976 945.686 415.738C948.448 418.501 950 422.247 950 426.154V473.963C950 476.405 948.529 478.606 946.274 479.54C944.018 480.475 941.421 479.958 939.695 478.232L924.078 462.614H900.5C896.594 462.614 892.847 461.063 890.085 458.3C887.323 455.538 885.771 451.792 885.771 447.885V443.539C885.771 440.205 888.473 437.502 891.807 437.502C895.141 437.502 897.844 440.205 897.844 443.539V447.885C897.844 448.59 898.124 449.265 898.622 449.763C899.12 450.262 899.796 450.541 900.5 450.541H926.578C928.179 450.541 929.714 451.177 930.847 452.309L937.927 459.39V426.154C937.927 425.449 937.647 424.774 937.149 424.275C936.651 423.777 935.975 423.497 935.271 423.497H926.578C923.244 423.497 920.541 420.795 920.541 417.461Z" fill="#1B2973"/>
<path fill-rule="evenodd" clip-rule="evenodd" d="M844.729 713.073C843.282 713.073 842.073 714.282 842.073 715.729V748.965L849.153 741.885C850.286 740.753 851.821 740.117 853.422 740.117H879.5C880.204 740.117 880.88 739.837 881.378 739.339C881.876 738.841 882.156 738.165 882.156 737.461V715.729C882.156 715.025 881.876 714.349 881.378 713.851C880.88 713.353 880.204 713.073 879.5 713.073H844.729ZM830 715.729C830 707.614 836.614 701 844.729 701H879.5C883.406 701 887.153 702.552 889.915 705.314C892.677 708.076 894.229 711.823 894.229 715.729V737.461C894.229 741.367 892.677 745.114 889.915 747.876C887.153 750.638 883.406 752.19 879.5 752.19H855.922L840.305 767.807C838.579 769.534 835.982 770.05 833.726 769.116C831.471 768.182 830 765.98 830 763.539V715.729ZM899.541 737.461C899.541 734.127 902.244 731.424 905.578 731.424H914.271C918.177 731.424 921.924 732.976 924.686 735.738C927.448 738.501 929 742.247 929 746.154V793.963C929 796.405 927.529 798.606 925.274 799.54C923.018 800.475 920.421 799.958 918.695 798.232L903.078 782.614H879.5C875.594 782.614 871.847 781.063 869.085 778.3C866.323 775.538 864.771 771.792 864.771 767.885V763.539C864.771 760.205 867.473 757.502 870.807 757.502C874.141 757.502 876.844 760.205 876.844 763.539V767.885C876.844 768.59 877.124 769.265 877.622 769.763C878.12 770.262 878.796 770.541 879.5 770.541H905.578C907.179 770.541 908.714 771.177 909.847 772.309L916.927 779.39V746.154C916.927 745.449 916.647 744.774 916.149 744.275C915.651 743.777 914.975 743.497 914.271 743.497H905.578C902.244 743.497 899.541 740.795 899.541 737.461Z" fill="#1B2973"/>
<path fill-rule="evenodd" clip-rule="evenodd" d="M387.729 93.0731C386.282 93.0731 385.073 94.2822 385.073 95.7292V128.965L392.153 121.885C393.286 120.753 394.821 120.117 396.422 120.117H422.5C423.204 120.117 423.88 119.837 424.378 119.339C424.876 118.841 425.156 118.165 425.156 117.461V95.7292C425.156 95.0248 424.876 94.3492 424.378 93.8511C423.88 93.353 423.204 93.0731 422.5 93.0731H387.729ZM373 95.7292C373 87.6144 379.614 81 387.729 81H422.5C426.406 81 430.153 82.5518 432.915 85.3141C435.677 88.0764 437.229 91.8228 437.229 95.7292V117.461C437.229 121.367 435.677 125.114 432.915 127.876C430.153 130.638 426.406 132.19 422.5 132.19H398.922L383.305 147.807C381.579 149.534 378.982 150.05 376.726 149.116C374.471 148.182 373 145.98 373 143.539V95.7292ZM442.541 117.461C442.541 114.127 445.244 111.424 448.578 111.424H457.271C461.177 111.424 464.924 112.976 467.686 115.738C470.448 118.501 472 122.247 472 126.154V173.963C472 176.405 470.529 178.606 468.274 179.54C466.018 180.475 463.421 179.958 461.695 178.232L446.078 162.614H422.5C418.594 162.614 414.847 161.063 412.085 158.3C409.323 155.538 407.771 151.792 407.771 147.885V143.539C407.771 140.205 410.473 137.502 413.807 137.502C417.141 137.502 419.844 140.205 419.844 143.539V147.885C419.844 148.59 420.124 149.265 420.622 149.763C421.12 150.262 421.796 150.541 422.5 150.541H448.578C450.179 150.541 451.714 151.177 452.847 152.309L459.927 159.39V126.154C459.927 125.449 459.647 124.774 459.149 124.275C458.651 123.777 457.975 123.497 457.271 123.497H448.578C445.244 123.497 442.541 120.795 442.541 117.461Z" fill="#1B2973"/>
<path fill-rule="evenodd" clip-rule="evenodd" d="M288.729 253.073C287.282 253.073 286.073 254.282 286.073 255.729V288.965L293.153 281.885C294.286 280.753 295.821 280.117 297.422 280.117H323.5C324.204 280.117 324.88 279.837 325.378 279.339C325.876 278.841 326.156 278.165 326.156 277.461V255.729C326.156 255.025 325.876 254.349 325.378 253.851C324.88 253.353 324.204 253.073 323.5 253.073H288.729ZM274 255.729C274 247.614 280.614 241 288.729 241H323.5C327.406 241 331.153 242.552 333.915 245.314C336.677 248.076 338.229 251.823 338.229 255.729V277.461C338.229 281.367 336.677 285.114 333.915 287.876C331.153 290.638 327.406 292.19 323.5 292.19H299.922L284.305 307.807C282.579 309.534 279.982 310.05 277.726 309.116C275.471 308.182 274 305.98 274 303.539V255.729ZM343.541 277.461C343.541 274.127 346.244 271.424 349.578 271.424H358.271C362.177 271.424 365.924 272.976 368.686 275.738C371.448 278.501 373 282.247 373 286.154V333.963C373 336.405 371.529 338.606 369.274 339.54C367.018 340.475 364.421 339.958 362.695 338.232L347.078 322.614H323.5C319.594 322.614 315.847 321.063 313.085 318.3C310.323 315.538 308.771 311.792 308.771 307.885V303.539C308.771 300.205 311.473 297.502 314.807 297.502C318.141 297.502 320.844 300.205 320.844 303.539V307.885C320.844 308.59 321.124 309.265 321.622 309.763C322.12 310.262 322.796 310.541 323.5 310.541H349.578C351.179 310.541 352.714 311.177 353.847 312.309L360.927 319.39V286.154C360.927 285.449 360.647 284.774 360.149 284.275C359.651 283.777 358.975 283.497 358.271 283.497H349.578C346.244 283.497 343.541 280.795 343.541 277.461Z" fill="#1B2973"/>
<path fill-rule="evenodd" clip-rule="evenodd" d="M288.729 573.073C287.282 573.073 286.073 574.282 286.073 575.729V608.965L293.153 601.885C294.286 600.753 295.821 600.117 297.422 600.117H323.5C324.204 600.117 324.88 599.837 325.378 599.339C325.876 598.841 326.156 598.165 326.156 597.461V575.729C326.156 575.025 325.876 574.349 325.378 573.851C324.88 573.353 324.204 573.073 323.5 573.073H288.729ZM274 575.729C274 567.614 280.614 561 288.729 561H323.5C327.406 561 331.153 562.552 333.915 565.314C336.677 568.076 338.229 571.823 338.229 575.729V597.461C338.229 601.367 336.677 605.114 333.915 607.876C331.153 610.638 327.406 612.19 323.5 612.19H299.922L284.305 627.807C282.579 629.534 279.982 630.05 277.726 629.116C275.471 628.182 274 625.98 274 623.539V575.729ZM343.541 597.461C343.541 594.127 346.244 591.424 349.578 591.424H358.271C362.177 591.424 365.924 592.976 368.686 595.738C371.448 598.501 373 602.247 373 606.154V653.963C373 656.405 371.529 658.606 369.274 659.54C367.018 660.475 364.421 659.958 362.695 658.232L347.078 642.614H323.5C319.594 642.614 315.847 641.063 313.085 638.3C310.323 635.538 308.771 631.792 308.771 627.885V623.539C308.771 620.205 311.473 617.502 314.807 617.502C318.141 617.502 320.844 620.205 320.844 623.539V627.885C320.844 628.59 321.124 629.265 321.622 629.763C322.12 630.262 322.796 630.541 323.5 630.541H349.578C351.179 630.541 352.714 631.177 353.847 632.309L360.927 639.39V606.154C360.927 605.449 360.647 604.774 360.149 604.275C359.651 603.777 358.975 603.497 358.271 603.497H349.578C346.244 603.497 343.541 600.795 343.541 597.461Z" fill="#1B2973"/>
<path fill-rule="evenodd" clip-rule="evenodd" d="M267.729 893.073C266.282 893.073 265.073 894.282 265.073 895.729V928.965L272.153 921.885C273.286 920.753 274.821 920.117 276.422 920.117H302.5C303.204 920.117 303.88 919.837 304.378 919.339C304.876 918.841 305.156 918.165 305.156 917.461V895.729C305.156 895.025 304.876 894.349 304.378 893.851C303.88 893.353 303.204 893.073 302.5 893.073H267.729ZM253 895.729C253 887.614 259.614 881 267.729 881H302.5C306.406 881 310.153 882.552 312.915 885.314C315.677 888.076 317.229 891.823 317.229 895.729V917.461C317.229 921.367 315.677 925.114 312.915 927.876C310.153 930.638 306.406 932.19 302.5 932.19H278.922L263.305 947.807C261.579 949.534 258.982 950.05 256.726 949.116C254.471 948.182 253 945.98 253 943.539V895.729ZM322.541 917.461C322.541 914.127 325.244 911.424 328.578 911.424H337.271C341.177 911.424 344.924 912.976 347.686 915.738C350.448 918.501 352 922.247 352 926.154V973.963C352 976.405 350.529 978.606 348.274 979.54C346.018 980.475 343.421 979.958 341.695 978.232L326.078 962.614H302.5C298.594 962.614 294.847 961.063 292.085 958.3C289.323 955.538 287.771 951.792 287.771 947.885V943.539C287.771 940.205 290.473 937.502 293.807 937.502C297.141 937.502 299.844 940.205 299.844 943.539V947.885C299.844 948.59 300.124 949.265 300.622 949.763C301.12 950.262 301.796 950.541 302.5 950.541H328.578C330.179 950.541 331.714 951.177 332.847 952.309L339.927 959.39V926.154C339.927 925.449 339.647 924.774 339.149 924.275C338.651 923.777 337.975 923.497 337.271 923.497H328.578C325.244 923.497 322.541 920.795 322.541 917.461Z" fill="#1B2973"/>
<path fill-rule="evenodd" clip-rule="evenodd" d="M387.729 413.073C386.282 413.073 385.073 414.282 385.073 415.729V448.965L392.153 441.885C393.286 440.753 394.821 440.117 396.422 440.117H422.5C423.204 440.117 423.88 439.837 424.378 439.339C424.876 438.841 425.156 438.165 425.156 437.461V415.729C425.156 415.025 424.876 414.349 424.378 413.851C423.88 413.353 423.204 413.073 422.5 413.073H387.729ZM373 415.729C373 407.614 379.614 401 387.729 401H422.5C426.406 401 430.153 402.552 432.915 405.314C435.677 408.076 437.229 411.823 437.229 415.729V437.461C437.229 441.367 435.677 445.114 432.915 447.876C430.153 450.638 426.406 452.19 422.5 452.19H398.922L383.305 467.807C381.579 469.534 378.982 470.05 376.726 469.116C374.471 468.182 373 465.98 373 463.539V415.729ZM442.541 437.461C442.541 434.127 445.244 431.424 448.578 431.424H457.271C461.177 431.424 464.924 432.976 467.686 435.738C470.448 438.501 472 442.247 472 446.154V493.963C472 496.405 470.529 498.606 468.274 499.54C466.018 500.475 463.421 499.958 461.695 498.232L446.078 482.614H422.5C418.594 482.614 414.847 481.063 412.085 478.3C409.323 475.538 407.771 471.792 407.771 467.885V463.539C407.771 460.205 410.473 457.502 413.807 457.502C417.141 457.502 419.844 460.205 419.844 463.539V467.885C419.844 468.59 420.124 469.265 420.622 469.763C421.12 470.262 421.796 470.541 422.5 470.541H448.578C450.179 470.541 451.714 471.177 452.847 472.309L459.927 479.39V446.154C459.927 445.449 459.647 444.774 459.149 444.275C458.651 443.777 457.975 443.497 457.271 443.497H448.578C445.244 443.497 442.541 440.795 442.541 437.461Z" fill="#1B2973"/>
<path fill-rule="evenodd" clip-rule="evenodd" d="M366.729 733.073C365.282 733.073 364.073 734.282 364.073 735.729V768.965L371.153 761.885C372.286 760.753 373.821 760.117 375.422 760.117H401.5C402.204 760.117 402.88 759.837 403.378 759.339C403.876 758.841 404.156 758.165 404.156 757.461V735.729C404.156 735.025 403.876 734.349 403.378 733.851C402.88 733.353 402.204 733.073 401.5 733.073H366.729ZM352 735.729C352 727.614 358.614 721 366.729 721H401.5C405.406 721 409.153 722.552 411.915 725.314C414.677 728.076 416.229 731.823 416.229 735.729V757.461C416.229 761.367 414.677 765.114 411.915 767.876C409.153 770.638 405.406 772.19 401.5 772.19H377.922L362.305 787.807C360.579 789.534 357.982 790.05 355.726 789.116C353.471 788.182 352 785.98 352 783.539V735.729ZM421.541 757.461C421.541 754.127 424.244 751.424 427.578 751.424H436.271C440.177 751.424 443.924 752.976 446.686 755.738C449.448 758.501 451 762.247 451 766.154V813.963C451 816.405 449.529 818.606 447.274 819.54C445.018 820.475 442.421 819.958 440.695 818.232L425.078 802.614H401.5C397.594 802.614 393.847 801.063 391.085 798.3C388.323 795.538 386.771 791.792 386.771 787.885V783.539C386.771 780.205 389.473 777.502 392.807 777.502C396.141 777.502 398.844 780.205 398.844 783.539V787.885C398.844 788.59 399.124 789.265 399.622 789.763C400.12 790.262 400.796 790.541 401.5 790.541H427.578C429.179 790.541 430.714 791.177 431.847 792.309L438.927 799.39V766.154C438.927 765.449 438.647 764.774 438.149 764.275C437.651 763.777 436.975 763.497 436.271 763.497H427.578C424.244 763.497 421.541 760.795 421.541 757.461Z" fill="#1B2973"/>
<path fill-rule="evenodd" clip-rule="evenodd" d="M1582.73 113.073C1581.28 113.073 1580.07 114.282 1580.07 115.729V148.965L1587.15 141.885C1588.29 140.753 1589.82 140.117 1591.42 140.117H1617.5C1618.2 140.117 1618.88 139.837 1619.38 139.339C1619.88 138.841 1620.16 138.165 1620.16 137.461V115.729C1620.16 115.025 1619.88 114.349 1619.38 113.851C1618.88 113.353 1618.2 113.073 1617.5 113.073H1582.73ZM1568 115.729C1568 107.614 1574.61 101 1582.73 101H1617.5C1621.41 101 1625.15 102.552 1627.92 105.314C1630.68 108.076 1632.23 111.823 1632.23 115.729V137.461C1632.23 141.367 1630.68 145.114 1627.92 147.876C1625.15 150.638 1621.41 152.19 1617.5 152.19H1593.92L1578.31 167.807C1576.58 169.534 1573.98 170.05 1571.73 169.116C1569.47 168.182 1568 165.98 1568 163.539V115.729ZM1637.54 137.461C1637.54 134.127 1640.24 131.424 1643.58 131.424H1652.27C1656.18 131.424 1659.92 132.976 1662.69 135.738C1665.45 138.501 1667 142.247 1667 146.154V193.963C1667 196.405 1665.53 198.606 1663.27 199.54C1661.02 200.475 1658.42 199.958 1656.69 198.232L1641.08 182.614H1617.5C1613.59 182.614 1609.85 181.063 1607.08 178.3C1604.32 175.538 1602.77 171.792 1602.77 167.885V163.539C1602.77 160.205 1605.47 157.502 1608.81 157.502C1612.14 157.502 1614.84 160.205 1614.84 163.539V167.885C1614.84 168.59 1615.12 169.265 1615.62 169.763C1616.12 170.262 1616.8 170.541 1617.5 170.541H1643.58C1645.18 170.541 1646.71 171.177 1647.85 172.309L1654.93 179.39V146.154C1654.93 145.449 1654.65 144.774 1654.15 144.275C1653.65 143.777 1652.98 143.497 1652.27 143.497H1643.58C1640.24 143.497 1637.54 140.795 1637.54 137.461Z" fill="#1B2973"/>
<path fill-rule="evenodd" clip-rule="evenodd" d="M1483.73 273.073C1482.28 273.073 1481.07 274.282 1481.07 275.729V308.965L1488.15 301.885C1489.29 300.753 1490.82 300.117 1492.42 300.117H1518.5C1519.2 300.117 1519.88 299.837 1520.38 299.339C1520.88 298.841 1521.16 298.165 1521.16 297.461V275.729C1521.16 275.025 1520.88 274.349 1520.38 273.851C1519.88 273.353 1519.2 273.073 1518.5 273.073H1483.73ZM1469 275.729C1469 267.614 1475.61 261 1483.73 261H1518.5C1522.41 261 1526.15 262.552 1528.92 265.314C1531.68 268.076 1533.23 271.823 1533.23 275.729V297.461C1533.23 301.367 1531.68 305.114 1528.92 307.876C1526.15 310.638 1522.41 312.19 1518.5 312.19H1494.92L1479.31 327.807C1477.58 329.534 1474.98 330.05 1472.73 329.116C1470.47 328.182 1469 325.98 1469 323.539V275.729ZM1538.54 297.461C1538.54 294.127 1541.24 291.424 1544.58 291.424H1553.27C1557.18 291.424 1560.92 292.976 1563.69 295.738C1566.45 298.501 1568 302.247 1568 306.154V353.963C1568 356.405 1566.53 358.606 1564.27 359.54C1562.02 360.475 1559.42 359.958 1557.69 358.232L1542.08 342.614H1518.5C1514.59 342.614 1510.85 341.063 1508.08 338.3C1505.32 335.538 1503.77 331.792 1503.77 327.885V323.539C1503.77 320.205 1506.47 317.502 1509.81 317.502C1513.14 317.502 1515.84 320.205 1515.84 323.539V327.885C1515.84 328.59 1516.12 329.265 1516.62 329.763C1517.12 330.262 1517.8 330.541 1518.5 330.541H1544.58C1546.18 330.541 1547.71 331.177 1548.85 332.309L1555.93 339.39V306.154C1555.93 305.449 1555.65 304.774 1555.15 304.275C1554.65 303.777 1553.98 303.497 1553.27 303.497H1544.58C1541.24 303.497 1538.54 300.795 1538.54 297.461Z" fill="#1B2973"/>
<path fill-rule="evenodd" clip-rule="evenodd" d="M1483.73 593.073C1482.28 593.073 1481.07 594.282 1481.07 595.729V628.965L1488.15 621.885C1489.29 620.753 1490.82 620.117 1492.42 620.117H1518.5C1519.2 620.117 1519.88 619.837 1520.38 619.339C1520.88 618.841 1521.16 618.165 1521.16 617.461V595.729C1521.16 595.025 1520.88 594.349 1520.38 593.851C1519.88 593.353 1519.2 593.073 1518.5 593.073H1483.73ZM1469 595.729C1469 587.614 1475.61 581 1483.73 581H1518.5C1522.41 581 1526.15 582.552 1528.92 585.314C1531.68 588.076 1533.23 591.823 1533.23 595.729V617.461C1533.23 621.367 1531.68 625.114 1528.92 627.876C1526.15 630.638 1522.41 632.19 1518.5 632.19H1494.92L1479.31 647.807C1477.58 649.534 1474.98 650.05 1472.73 649.116C1470.47 648.182 1469 645.98 1469 643.539V595.729ZM1538.54 617.461C1538.54 614.127 1541.24 611.424 1544.58 611.424H1553.27C1557.18 611.424 1560.92 612.976 1563.69 615.738C1566.45 618.501 1568 622.247 1568 626.154V673.963C1568 676.405 1566.53 678.606 1564.27 679.54C1562.02 680.475 1559.42 679.958 1557.69 678.232L1542.08 662.614H1518.5C1514.59 662.614 1510.85 661.063 1508.08 658.3C1505.32 655.538 1503.77 651.792 1503.77 647.885V643.539C1503.77 640.205 1506.47 637.502 1509.81 637.502C1513.14 637.502 1515.84 640.205 1515.84 643.539V647.885C1515.84 648.59 1516.12 649.265 1516.62 649.763C1517.12 650.262 1517.8 650.541 1518.5 650.541H1544.58C1546.18 650.541 1547.71 651.177 1548.85 652.309L1555.93 659.39V626.154C1555.93 625.449 1555.65 624.774 1555.15 624.275C1554.65 623.777 1553.98 623.497 1553.27 623.497H1544.58C1541.24 623.497 1538.54 620.795 1538.54 617.461Z" fill="#1B2973"/>
<path fill-rule="evenodd" clip-rule="evenodd" d="M1462.73 913.073C1461.28 913.073 1460.07 914.282 1460.07 915.729V948.965L1467.15 941.885C1468.29 940.753 1469.82 940.117 1471.42 940.117H1497.5C1498.2 940.117 1498.88 939.837 1499.38 939.339C1499.88 938.841 1500.16 938.165 1500.16 937.461V915.729C1500.16 915.025 1499.88 914.349 1499.38 913.851C1498.88 913.353 1498.2 913.073 1497.5 913.073H1462.73ZM1448 915.729C1448 907.614 1454.61 901 1462.73 901H1497.5C1501.41 901 1505.15 902.552 1507.92 905.314C1510.68 908.076 1512.23 911.823 1512.23 915.729V937.461C1512.23 941.367 1510.68 945.114 1507.92 947.876C1505.15 950.638 1501.41 952.19 1497.5 952.19H1473.92L1458.31 967.807C1456.58 969.534 1453.98 970.05 1451.73 969.116C1449.47 968.182 1448 965.98 1448 963.539V915.729ZM1517.54 937.461C1517.54 934.127 1520.24 931.424 1523.58 931.424H1532.27C1536.18 931.424 1539.92 932.976 1542.69 935.738C1545.45 938.501 1547 942.247 1547 946.154V993.963C1547 996.405 1545.53 998.606 1543.27 999.54C1541.02 1000.47 1538.42 999.958 1536.69 998.232L1521.08 982.614H1497.5C1493.59 982.614 1489.85 981.063 1487.08 978.3C1484.32 975.538 1482.77 971.792 1482.77 967.885V963.539C1482.77 960.205 1485.47 957.502 1488.81 957.502C1492.14 957.502 1494.84 960.205 1494.84 963.539V967.885C1494.84 968.59 1495.12 969.265 1495.62 969.763C1496.12 970.262 1496.8 970.541 1497.5 970.541H1523.58C1525.18 970.541 1526.71 971.177 1527.85 972.309L1534.93 979.39V946.154C1534.93 945.449 1534.65 944.774 1534.15 944.275C1533.65 943.777 1532.98 943.497 1532.27 943.497H1523.58C1520.24 943.497 1517.54 940.795 1517.54 937.461Z" fill="#1B2973"/>
<path fill-rule="evenodd" clip-rule="evenodd" d="M1582.73 433.073C1581.28 433.073 1580.07 434.282 1580.07 435.729V468.965L1587.15 461.885C1588.29 460.753 1589.82 460.117 1591.42 460.117H1617.5C1618.2 460.117 1618.88 459.837 1619.38 459.339C1619.88 458.841 1620.16 458.165 1620.16 457.461V435.729C1620.16 435.025 1619.88 434.349 1619.38 433.851C1618.88 433.353 1618.2 433.073 1617.5 433.073H1582.73ZM1568 435.729C1568 427.614 1574.61 421 1582.73 421H1617.5C1621.41 421 1625.15 422.552 1627.92 425.314C1630.68 428.076 1632.23 431.823 1632.23 435.729V457.461C1632.23 461.367 1630.68 465.114 1627.92 467.876C1625.15 470.638 1621.41 472.19 1617.5 472.19H1593.92L1578.31 487.807C1576.58 489.534 1573.98 490.05 1571.73 489.116C1569.47 488.182 1568 485.98 1568 483.539V435.729ZM1637.54 457.461C1637.54 454.127 1640.24 451.424 1643.58 451.424H1652.27C1656.18 451.424 1659.92 452.976 1662.69 455.738C1665.45 458.501 1667 462.247 1667 466.154V513.963C1667 516.405 1665.53 518.606 1663.27 519.54C1661.02 520.475 1658.42 519.958 1656.69 518.232L1641.08 502.614H1617.5C1613.59 502.614 1609.85 501.063 1607.08 498.3C1604.32 495.538 1602.77 491.792 1602.77 487.885V483.539C1602.77 480.205 1605.47 477.502 1608.81 477.502C1612.14 477.502 1614.84 480.205 1614.84 483.539V487.885C1614.84 488.59 1615.12 489.265 1615.62 489.763C1616.12 490.262 1616.8 490.541 1617.5 490.541H1643.58C1645.18 490.541 1646.71 491.177 1647.85 492.309L1654.93 499.39V466.154C1654.93 465.449 1654.65 464.774 1654.15 464.275C1653.65 463.777 1652.98 463.497 1652.27 463.497H1643.58C1640.24 463.497 1637.54 460.795 1637.54 457.461Z" fill="#1B2973"/>
<path fill-rule="evenodd" clip-rule="evenodd" d="M1561.73 753.073C1560.28 753.073 1559.07 754.282 1559.07 755.729V788.965L1566.15 781.885C1567.29 780.753 1568.82 780.117 1570.42 780.117H1596.5C1597.2 780.117 1597.88 779.837 1598.38 779.339C1598.88 778.841 1599.16 778.165 1599.16 777.461V755.729C1599.16 755.025 1598.88 754.349 1598.38 753.851C1597.88 753.353 1597.2 753.073 1596.5 753.073H1561.73ZM1547 755.729C1547 747.614 1553.61 741 1561.73 741H1596.5C1600.41 741 1604.15 742.552 1606.92 745.314C1609.68 748.076 1611.23 751.823 1611.23 755.729V777.461C1611.23 781.367 1609.68 785.114 1606.92 787.876C1604.15 790.638 1600.41 792.19 1596.5 792.19H1572.92L1557.31 807.807C1555.58 809.534 1552.98 810.05 1550.73 809.116C1548.47 808.182 1547 805.98 1547 803.539V755.729ZM1616.54 777.461C1616.54 774.127 1619.24 771.424 1622.58 771.424H1631.27C1635.18 771.424 1638.92 772.976 1641.69 775.738C1644.45 778.501 1646 782.247 1646 786.154V833.963C1646 836.405 1644.53 838.606 1642.27 839.54C1640.02 840.475 1637.42 839.958 1635.69 838.232L1620.08 822.614H1596.5C1592.59 822.614 1588.85 821.063 1586.08 818.3C1583.32 815.538 1581.77 811.792 1581.77 807.885V803.539C1581.77 800.205 1584.47 797.502 1587.81 797.502C1591.14 797.502 1593.84 800.205 1593.84 803.539V807.885C1593.84 808.59 1594.12 809.265 1594.62 809.763C1595.12 810.262 1595.8 810.541 1596.5 810.541H1622.58C1624.18 810.541 1625.71 811.177 1626.85 812.309L1633.93 819.39V786.154C1633.93 785.449 1633.65 784.774 1633.15 784.275C1632.65 783.777 1631.98 783.497 1631.27 783.497H1622.58C1619.24 783.497 1616.54 780.795 1616.54 777.461Z" fill="#1B2973"/>
<path fill-rule="evenodd" clip-rule="evenodd" d="M1104.73 133.073C1103.28 133.073 1102.07 134.282 1102.07 135.729V168.965L1109.15 161.885C1110.29 160.753 1111.82 160.117 1113.42 160.117H1139.5C1140.2 160.117 1140.88 159.837 1141.38 159.339C1141.88 158.841 1142.16 158.165 1142.16 157.461V135.729C1142.16 135.025 1141.88 134.349 1141.38 133.851C1140.88 133.353 1140.2 133.073 1139.5 133.073H1104.73ZM1090 135.729C1090 127.614 1096.61 121 1104.73 121H1139.5C1143.41 121 1147.15 122.552 1149.92 125.314C1152.68 128.076 1154.23 131.823 1154.23 135.729V157.461C1154.23 161.367 1152.68 165.114 1149.92 167.876C1147.15 170.638 1143.41 172.19 1139.5 172.19H1115.92L1100.31 187.807C1098.58 189.534 1095.98 190.05 1093.73 189.116C1091.47 188.182 1090 185.98 1090 183.539V135.729ZM1159.54 157.461C1159.54 154.127 1162.24 151.424 1165.58 151.424H1174.27C1178.18 151.424 1181.92 152.976 1184.69 155.738C1187.45 158.501 1189 162.247 1189 166.154V213.963C1189 216.405 1187.53 218.606 1185.27 219.54C1183.02 220.475 1180.42 219.958 1178.69 218.232L1163.08 202.614H1139.5C1135.59 202.614 1131.85 201.063 1129.08 198.3C1126.32 195.538 1124.77 191.792 1124.77 187.885V183.539C1124.77 180.205 1127.47 177.502 1130.81 177.502C1134.14 177.502 1136.84 180.205 1136.84 183.539V187.885C1136.84 188.59 1137.12 189.265 1137.62 189.763C1138.12 190.262 1138.8 190.541 1139.5 190.541H1165.58C1167.18 190.541 1168.71 191.177 1169.85 192.309L1176.93 199.39V166.154C1176.93 165.449 1176.65 164.774 1176.15 164.275C1175.65 163.777 1174.98 163.497 1174.27 163.497H1165.58C1162.24 163.497 1159.54 160.795 1159.54 157.461Z" fill="#1B2973"/>
<path fill-rule="evenodd" clip-rule="evenodd" d="M1005.73 293.073C1004.28 293.073 1003.07 294.282 1003.07 295.729V328.965L1010.15 321.885C1011.29 320.753 1012.82 320.117 1014.42 320.117H1040.5C1041.2 320.117 1041.88 319.837 1042.38 319.339C1042.88 318.841 1043.16 318.165 1043.16 317.461V295.729C1043.16 295.025 1042.88 294.349 1042.38 293.851C1041.88 293.353 1041.2 293.073 1040.5 293.073H1005.73ZM991 295.729C991 287.614 997.614 281 1005.73 281H1040.5C1044.41 281 1048.15 282.552 1050.92 285.314C1053.68 288.076 1055.23 291.823 1055.23 295.729V317.461C1055.23 321.367 1053.68 325.114 1050.92 327.876C1048.15 330.638 1044.41 332.19 1040.5 332.19H1016.92L1001.31 347.807C999.579 349.534 996.982 350.05 994.726 349.116C992.471 348.182 991 345.98 991 343.539V295.729ZM1060.54 317.461C1060.54 314.127 1063.24 311.424 1066.58 311.424H1075.27C1079.18 311.424 1082.92 312.976 1085.69 315.738C1088.45 318.501 1090 322.247 1090 326.154V373.963C1090 376.405 1088.53 378.606 1086.27 379.54C1084.02 380.475 1081.42 379.958 1079.69 378.232L1064.08 362.614H1040.5C1036.59 362.614 1032.85 361.063 1030.08 358.3C1027.32 355.538 1025.77 351.792 1025.77 347.885V343.539C1025.77 340.205 1028.47 337.502 1031.81 337.502C1035.14 337.502 1037.84 340.205 1037.84 343.539V347.885C1037.84 348.59 1038.12 349.265 1038.62 349.763C1039.12 350.262 1039.8 350.541 1040.5 350.541H1066.58C1068.18 350.541 1069.71 351.177 1070.85 352.309L1077.93 359.39V326.154C1077.93 325.449 1077.65 324.774 1077.15 324.275C1076.65 323.777 1075.98 323.497 1075.27 323.497H1066.58C1063.24 323.497 1060.54 320.795 1060.54 317.461Z" fill="#1B2973"/>
<path fill-rule="evenodd" clip-rule="evenodd" d="M1005.73 613.073C1004.28 613.073 1003.07 614.282 1003.07 615.729V648.965L1010.15 641.885C1011.29 640.753 1012.82 640.117 1014.42 640.117H1040.5C1041.2 640.117 1041.88 639.837 1042.38 639.339C1042.88 638.841 1043.16 638.165 1043.16 637.461V615.729C1043.16 615.025 1042.88 614.349 1042.38 613.851C1041.88 613.353 1041.2 613.073 1040.5 613.073H1005.73ZM991 615.729C991 607.614 997.614 601 1005.73 601H1040.5C1044.41 601 1048.15 602.552 1050.92 605.314C1053.68 608.076 1055.23 611.823 1055.23 615.729V637.461C1055.23 641.367 1053.68 645.114 1050.92 647.876C1048.15 650.638 1044.41 652.19 1040.5 652.19H1016.92L1001.31 667.807C999.579 669.534 996.982 670.05 994.726 669.116C992.471 668.182 991 665.98 991 663.539V615.729ZM1060.54 637.461C1060.54 634.127 1063.24 631.424 1066.58 631.424H1075.27C1079.18 631.424 1082.92 632.976 1085.69 635.738C1088.45 638.501 1090 642.247 1090 646.154V693.963C1090 696.405 1088.53 698.606 1086.27 699.54C1084.02 700.475 1081.42 699.958 1079.69 698.232L1064.08 682.614H1040.5C1036.59 682.614 1032.85 681.063 1030.08 678.3C1027.32 675.538 1025.77 671.792 1025.77 667.885V663.539C1025.77 660.205 1028.47 657.502 1031.81 657.502C1035.14 657.502 1037.84 660.205 1037.84 663.539V667.885C1037.84 668.59 1038.12 669.265 1038.62 669.763C1039.12 670.262 1039.8 670.541 1040.5 670.541H1066.58C1068.18 670.541 1069.71 671.177 1070.85 672.309L1077.93 679.39V646.154C1077.93 645.449 1077.65 644.774 1077.15 644.275C1076.65 643.777 1075.98 643.497 1075.27 643.497H1066.58C1063.24 643.497 1060.54 640.795 1060.54 637.461Z" fill="#1B2973"/>
<path fill-rule="evenodd" clip-rule="evenodd" d="M984.729 933.073C983.282 933.073 982.073 934.282 982.073 935.729V968.965L989.153 961.885C990.286 960.753 991.821 960.117 993.422 960.117H1019.5C1020.2 960.117 1020.88 959.837 1021.38 959.339C1021.88 958.841 1022.16 958.165 1022.16 957.461V935.729C1022.16 935.025 1021.88 934.349 1021.38 933.851C1020.88 933.353 1020.2 933.073 1019.5 933.073H984.729ZM970 935.729C970 927.614 976.614 921 984.729 921H1019.5C1023.41 921 1027.15 922.552 1029.92 925.314C1032.68 928.076 1034.23 931.823 1034.23 935.729V957.461C1034.23 961.367 1032.68 965.114 1029.92 967.876C1027.15 970.638 1023.41 972.19 1019.5 972.19H995.922L980.305 987.807C978.579 989.534 975.982 990.05 973.726 989.116C971.471 988.182 970 985.98 970 983.539V935.729ZM1039.54 957.461C1039.54 954.127 1042.24 951.424 1045.58 951.424H1054.27C1058.18 951.424 1061.92 952.976 1064.69 955.738C1067.45 958.501 1069 962.247 1069 966.154V1013.96C1069 1016.4 1067.53 1018.61 1065.27 1019.54C1063.02 1020.47 1060.42 1019.96 1058.69 1018.23L1043.08 1002.61H1019.5C1015.59 1002.61 1011.85 1001.06 1009.08 998.3C1006.32 995.538 1004.77 991.792 1004.77 987.885V983.539C1004.77 980.205 1007.47 977.502 1010.81 977.502C1014.14 977.502 1016.84 980.205 1016.84 983.539V987.885C1016.84 988.59 1017.12 989.265 1017.62 989.763C1018.12 990.262 1018.8 990.541 1019.5 990.541H1045.58C1047.18 990.541 1048.71 991.177 1049.85 992.309L1056.93 999.39V966.154C1056.93 965.449 1056.65 964.774 1056.15 964.275C1055.65 963.777 1054.98 963.497 1054.27 963.497H1045.58C1042.24 963.497 1039.54 960.795 1039.54 957.461Z" fill="#1B2973"/>
<path fill-rule="evenodd" clip-rule="evenodd" d="M1104.73 453.073C1103.28 453.073 1102.07 454.282 1102.07 455.729V488.965L1109.15 481.885C1110.29 480.753 1111.82 480.117 1113.42 480.117H1139.5C1140.2 480.117 1140.88 479.837 1141.38 479.339C1141.88 478.841 1142.16 478.165 1142.16 477.461V455.729C1142.16 455.025 1141.88 454.349 1141.38 453.851C1140.88 453.353 1140.2 453.073 1139.5 453.073H1104.73ZM1090 455.729C1090 447.614 1096.61 441 1104.73 441H1139.5C1143.41 441 1147.15 442.552 1149.92 445.314C1152.68 448.076 1154.23 451.823 1154.23 455.729V477.461C1154.23 481.367 1152.68 485.114 1149.92 487.876C1147.15 490.638 1143.41 492.19 1139.5 492.19H1115.92L1100.31 507.807C1098.58 509.534 1095.98 510.05 1093.73 509.116C1091.47 508.182 1090 505.98 1090 503.539V455.729ZM1159.54 477.461C1159.54 474.127 1162.24 471.424 1165.58 471.424H1174.27C1178.18 471.424 1181.92 472.976 1184.69 475.738C1187.45 478.501 1189 482.247 1189 486.154V533.963C1189 536.405 1187.53 538.606 1185.27 539.54C1183.02 540.475 1180.42 539.958 1178.69 538.232L1163.08 522.614H1139.5C1135.59 522.614 1131.85 521.063 1129.08 518.3C1126.32 515.538 1124.77 511.792 1124.77 507.885V503.539C1124.77 500.205 1127.47 497.502 1130.81 497.502C1134.14 497.502 1136.84 500.205 1136.84 503.539V507.885C1136.84 508.59 1137.12 509.265 1137.62 509.763C1138.12 510.262 1138.8 510.541 1139.5 510.541H1165.58C1167.18 510.541 1168.71 511.177 1169.85 512.309L1176.93 519.39V486.154C1176.93 485.449 1176.65 484.774 1176.15 484.275C1175.65 483.777 1174.98 483.497 1174.27 483.497H1165.58C1162.24 483.497 1159.54 480.795 1159.54 477.461Z" fill="#1B2973"/>
<path fill-rule="evenodd" clip-rule="evenodd" d="M1083.73 773.073C1082.28 773.073 1081.07 774.282 1081.07 775.729V808.965L1088.15 801.885C1089.29 800.753 1090.82 800.117 1092.42 800.117H1118.5C1119.2 800.117 1119.88 799.837 1120.38 799.339C1120.88 798.841 1121.16 798.165 1121.16 797.461V775.729C1121.16 775.025 1120.88 774.349 1120.38 773.851C1119.88 773.353 1119.2 773.073 1118.5 773.073H1083.73ZM1069 775.729C1069 767.614 1075.61 761 1083.73 761H1118.5C1122.41 761 1126.15 762.552 1128.92 765.314C1131.68 768.076 1133.23 771.823 1133.23 775.729V797.461C1133.23 801.367 1131.68 805.114 1128.92 807.876C1126.15 810.638 1122.41 812.19 1118.5 812.19H1094.92L1079.31 827.807C1077.58 829.534 1074.98 830.05 1072.73 829.116C1070.47 828.182 1069 825.98 1069 823.539V775.729ZM1138.54 797.461C1138.54 794.127 1141.24 791.424 1144.58 791.424H1153.27C1157.18 791.424 1160.92 792.976 1163.69 795.738C1166.45 798.501 1168 802.247 1168 806.154V853.963C1168 856.405 1166.53 858.606 1164.27 859.54C1162.02 860.475 1159.42 859.958 1157.69 858.232L1142.08 842.614H1118.5C1114.59 842.614 1110.85 841.063 1108.08 838.3C1105.32 835.538 1103.77 831.792 1103.77 827.885V823.539C1103.77 820.205 1106.47 817.502 1109.81 817.502C1113.14 817.502 1115.84 820.205 1115.84 823.539V827.885C1115.84 828.59 1116.12 829.265 1116.62 829.763C1117.12 830.262 1117.8 830.541 1118.5 830.541H1144.58C1146.18 830.541 1147.71 831.177 1148.85 832.309L1155.93 839.39V806.154C1155.93 805.449 1155.65 804.774 1155.15 804.275C1154.65 803.777 1153.98 803.497 1153.27 803.497H1144.58C1141.24 803.497 1138.54 800.795 1138.54 797.461Z" fill="#1B2973"/>
<path fill-rule="evenodd" clip-rule="evenodd" d="M626.729 153.073C625.282 153.073 624.073 154.282 624.073 155.729V188.965L631.153 181.885C632.286 180.753 633.821 180.117 635.422 180.117H661.5C662.204 180.117 662.88 179.837 663.378 179.339C663.876 178.841 664.156 178.165 664.156 177.461V155.729C664.156 155.025 663.876 154.349 663.378 153.851C662.88 153.353 662.204 153.073 661.5 153.073H626.729ZM612 155.729C612 147.614 618.614 141 626.729 141H661.5C665.406 141 669.153 142.552 671.915 145.314C674.677 148.076 676.229 151.823 676.229 155.729V177.461C676.229 181.367 674.677 185.114 671.915 187.876C669.153 190.638 665.406 192.19 661.5 192.19H637.922L622.305 207.807C620.579 209.534 617.982 210.05 615.726 209.116C613.471 208.182 612 205.98 612 203.539V155.729ZM681.541 177.461C681.541 174.127 684.244 171.424 687.578 171.424H696.271C700.177 171.424 703.924 172.976 706.686 175.738C709.448 178.501 711 182.247 711 186.154V233.963C711 236.405 709.529 238.606 707.274 239.54C705.018 240.475 702.421 239.958 700.695 238.232L685.078 222.614H661.5C657.594 222.614 653.847 221.063 651.085 218.3C648.323 215.538 646.771 211.792 646.771 207.885V203.539C646.771 200.205 649.473 197.502 652.807 197.502C656.141 197.502 658.844 200.205 658.844 203.539V207.885C658.844 208.59 659.124 209.265 659.622 209.763C660.12 210.262 660.796 210.541 661.5 210.541H687.578C689.179 210.541 690.714 211.177 691.847 212.309L698.927 219.39V186.154C698.927 185.449 698.647 184.774 698.149 184.275C697.651 183.777 696.975 183.497 696.271 183.497H687.578C684.244 183.497 681.541 180.795 681.541 177.461Z" fill="#1B2973"/>
<path fill-rule="evenodd" clip-rule="evenodd" d="M527.729 313.073C526.282 313.073 525.073 314.282 525.073 315.729V348.965L532.153 341.885C533.286 340.753 534.821 340.117 536.422 340.117H562.5C563.204 340.117 563.88 339.837 564.378 339.339C564.876 338.841 565.156 338.165 565.156 337.461V315.729C565.156 315.025 564.876 314.349 564.378 313.851C563.88 313.353 563.204 313.073 562.5 313.073H527.729ZM513 315.729C513 307.614 519.614 301 527.729 301H562.5C566.406 301 570.153 302.552 572.915 305.314C575.677 308.076 577.229 311.823 577.229 315.729V337.461C577.229 341.367 575.677 345.114 572.915 347.876C570.153 350.638 566.406 352.19 562.5 352.19H538.922L523.305 367.807C521.579 369.534 518.982 370.05 516.726 369.116C514.471 368.182 513 365.98 513 363.539V315.729ZM582.541 337.461C582.541 334.127 585.244 331.424 588.578 331.424H597.271C601.177 331.424 604.924 332.976 607.686 335.738C610.448 338.501 612 342.247 612 346.154V393.963C612 396.405 610.529 398.606 608.274 399.54C606.018 400.475 603.421 399.958 601.695 398.232L586.078 382.614H562.5C558.594 382.614 554.847 381.063 552.085 378.3C549.323 375.538 547.771 371.792 547.771 367.885V363.539C547.771 360.205 550.473 357.502 553.807 357.502C557.141 357.502 559.844 360.205 559.844 363.539V367.885C559.844 368.59 560.124 369.265 560.622 369.763C561.12 370.262 561.796 370.541 562.5 370.541H588.578C590.179 370.541 591.714 371.177 592.847 372.309L599.927 379.39V346.154C599.927 345.449 599.647 344.774 599.149 344.275C598.651 343.777 597.975 343.497 597.271 343.497H588.578C585.244 343.497 582.541 340.795 582.541 337.461Z" fill="#1B2973"/>
<path fill-rule="evenodd" clip-rule="evenodd" d="M527.729 633.073C526.282 633.073 525.073 634.282 525.073 635.729V668.965L532.153 661.885C533.286 660.753 534.821 660.117 536.422 660.117H562.5C563.204 660.117 563.88 659.837 564.378 659.339C564.876 658.841 565.156 658.165 565.156 657.461V635.729C565.156 635.025 564.876 634.349 564.378 633.851C563.88 633.353 563.204 633.073 562.5 633.073H527.729ZM513 635.729C513 627.614 519.614 621 527.729 621H562.5C566.406 621 570.153 622.552 572.915 625.314C575.677 628.076 577.229 631.823 577.229 635.729V657.461C577.229 661.367 575.677 665.114 572.915 667.876C570.153 670.638 566.406 672.19 562.5 672.19H538.922L523.305 687.807C521.579 689.534 518.982 690.05 516.726 689.116C514.471 688.182 513 685.98 513 683.539V635.729ZM582.541 657.461C582.541 654.127 585.244 651.424 588.578 651.424H597.271C601.177 651.424 604.924 652.976 607.686 655.738C610.448 658.501 612 662.247 612 666.154V713.963C612 716.405 610.529 718.606 608.274 719.54C606.018 720.475 603.421 719.958 601.695 718.232L586.078 702.614H562.5C558.594 702.614 554.847 701.063 552.085 698.3C549.323 695.538 547.771 691.792 547.771 687.885V683.539C547.771 680.205 550.473 677.502 553.807 677.502C557.141 677.502 559.844 680.205 559.844 683.539V687.885C559.844 688.59 560.124 689.265 560.622 689.763C561.12 690.262 561.796 690.541 562.5 690.541H588.578C590.179 690.541 591.714 691.177 592.847 692.309L599.927 699.39V666.154C599.927 665.449 599.647 664.774 599.149 664.275C598.651 663.777 597.975 663.497 597.271 663.497H588.578C585.244 663.497 582.541 660.795 582.541 657.461Z" fill="#1B2973"/>
<path fill-rule="evenodd" clip-rule="evenodd" d="M506.729 953.073C505.282 953.073 504.073 954.282 504.073 955.729V988.965L511.153 981.885C512.286 980.753 513.821 980.117 515.422 980.117H541.5C542.204 980.117 542.88 979.837 543.378 979.339C543.876 978.841 544.156 978.165 544.156 977.461V955.729C544.156 955.025 543.876 954.349 543.378 953.851C542.88 953.353 542.204 953.073 541.5 953.073H506.729ZM492 955.729C492 947.614 498.614 941 506.729 941H541.5C545.406 941 549.153 942.552 551.915 945.314C554.677 948.076 556.229 951.823 556.229 955.729V977.461C556.229 981.367 554.677 985.114 551.915 987.876C549.153 990.638 545.406 992.19 541.5 992.19H517.922L502.305 1007.81C500.579 1009.53 497.982 1010.05 495.726 1009.12C493.471 1008.18 492 1005.98 492 1003.54V955.729ZM561.541 977.461C561.541 974.127 564.244 971.424 567.578 971.424H576.271C580.177 971.424 583.924 972.976 586.686 975.738C589.448 978.501 591 982.247 591 986.154V1033.96C591 1036.4 589.529 1038.61 587.274 1039.54C585.018 1040.47 582.421 1039.96 580.695 1038.23L565.078 1022.61H541.5C537.594 1022.61 533.847 1021.06 531.085 1018.3C528.323 1015.54 526.771 1011.79 526.771 1007.89V1003.54C526.771 1000.21 529.473 997.502 532.807 997.502C536.141 997.502 538.844 1000.21 538.844 1003.54V1007.89C538.844 1008.59 539.124 1009.27 539.622 1009.76C540.12 1010.26 540.796 1010.54 541.5 1010.54H567.578C569.179 1010.54 570.714 1011.18 571.847 1012.31L578.927 1019.39V986.154C578.927 985.449 578.647 984.774 578.149 984.275C577.651 983.777 576.975 983.497 576.271 983.497H567.578C564.244 983.497 561.541 980.795 561.541 977.461Z" fill="#1B2973"/>
<path fill-rule="evenodd" clip-rule="evenodd" d="M626.729 473.073C625.282 473.073 624.073 474.282 624.073 475.729V508.965L631.153 501.885C632.286 500.753 633.821 500.117 635.422 500.117H661.5C662.204 500.117 662.88 499.837 663.378 499.339C663.876 498.841 664.156 498.165 664.156 497.461V475.729C664.156 475.025 663.876 474.349 663.378 473.851C662.88 473.353 662.204 473.073 661.5 473.073H626.729ZM612 475.729C612 467.614 618.614 461 626.729 461H661.5C665.406 461 669.153 462.552 671.915 465.314C674.677 468.076 676.229 471.823 676.229 475.729V497.461C676.229 501.367 674.677 505.114 671.915 507.876C669.153 510.638 665.406 512.19 661.5 512.19H637.922L622.305 527.807C620.579 529.534 617.982 530.05 615.726 529.116C613.471 528.182 612 525.98 612 523.539V475.729ZM681.541 497.461C681.541 494.127 684.244 491.424 687.578 491.424H696.271C700.177 491.424 703.924 492.976 706.686 495.738C709.448 498.501 711 502.247 711 506.154V553.963C711 556.405 709.529 558.606 707.274 559.54C705.018 560.475 702.421 559.958 700.695 558.232L685.078 542.614H661.5C657.594 542.614 653.847 541.063 651.085 538.3C648.323 535.538 646.771 531.792 646.771 527.885V523.539C646.771 520.205 649.473 517.502 652.807 517.502C656.141 517.502 658.844 520.205 658.844 523.539V527.885C658.844 528.59 659.124 529.265 659.622 529.763C660.12 530.262 660.796 530.541 661.5 530.541H687.578C689.179 530.541 690.714 531.177 691.847 532.309L698.927 539.39V506.154C698.927 505.449 698.647 504.774 698.149 504.275C697.651 503.777 696.975 503.497 696.271 503.497H687.578C684.244 503.497 681.541 500.795 681.541 497.461Z" fill="#1B2973"/>
<path fill-rule="evenodd" clip-rule="evenodd" d="M605.729 793.073C604.282 793.073 603.073 794.282 603.073 795.729V828.965L610.153 821.885C611.286 820.753 612.821 820.117 614.422 820.117H640.5C641.204 820.117 641.88 819.837 642.378 819.339C642.876 818.841 643.156 818.165 643.156 817.461V795.729C643.156 795.025 642.876 794.349 642.378 793.851C641.88 793.353 641.204 793.073 640.5 793.073H605.729ZM591 795.729C591 787.614 597.614 781 605.729 781H640.5C644.406 781 648.153 782.552 650.915 785.314C653.677 788.076 655.229 791.823 655.229 795.729V817.461C655.229 821.367 653.677 825.114 650.915 827.876C648.153 830.638 644.406 832.19 640.5 832.19H616.922L601.305 847.807C599.579 849.534 596.982 850.05 594.726 849.116C592.471 848.182 591 845.98 591 843.539V795.729ZM660.541 817.461C660.541 814.127 663.244 811.424 666.578 811.424H675.271C679.177 811.424 682.924 812.976 685.686 815.738C688.448 818.501 690 822.247 690 826.154V873.963C690 876.405 688.529 878.606 686.274 879.54C684.018 880.475 681.421 879.958 679.695 878.232L664.078 862.614H640.5C636.594 862.614 632.847 861.063 630.085 858.3C627.323 855.538 625.771 851.792 625.771 847.885V843.539C625.771 840.205 628.473 837.502 631.807 837.502C635.141 837.502 637.844 840.205 637.844 843.539V847.885C637.844 848.59 638.124 849.265 638.622 849.763C639.12 850.262 639.796 850.541 640.5 850.541H666.578C668.179 850.541 669.714 851.177 670.847 852.309L677.927 859.39V826.154C677.927 825.449 677.647 824.774 677.149 824.275C676.651 823.777 675.975 823.497 675.271 823.497H666.578C663.244 823.497 660.541 820.795 660.541 817.461Z" fill="#1B2973"/>
<path fill-rule="evenodd" clip-rule="evenodd" d="M1821.73 173.073C1820.28 173.073 1819.07 174.282 1819.07 175.729V208.965L1826.15 201.885C1827.29 200.753 1828.82 200.117 1830.42 200.117H1856.5C1857.2 200.117 1857.88 199.837 1858.38 199.339C1858.88 198.841 1859.16 198.165 1859.16 197.461V175.729C1859.16 175.025 1858.88 174.349 1858.38 173.851C1857.88 173.353 1857.2 173.073 1856.5 173.073H1821.73ZM1807 175.729C1807 167.614 1813.61 161 1821.73 161H1856.5C1860.41 161 1864.15 162.552 1866.92 165.314C1869.68 168.076 1871.23 171.823 1871.23 175.729V197.461C1871.23 201.367 1869.68 205.114 1866.92 207.876C1864.15 210.638 1860.41 212.19 1856.5 212.19H1832.92L1817.31 227.807C1815.58 229.534 1812.98 230.05 1810.73 229.116C1808.47 228.182 1807 225.98 1807 223.539V175.729ZM1876.54 197.461C1876.54 194.127 1879.24 191.424 1882.58 191.424H1891.27C1895.18 191.424 1898.92 192.976 1901.69 195.738C1904.45 198.501 1906 202.247 1906 206.154V253.963C1906 256.405 1904.53 258.606 1902.27 259.54C1900.02 260.475 1897.42 259.958 1895.69 258.232L1880.08 242.614H1856.5C1852.59 242.614 1848.85 241.063 1846.08 238.3C1843.32 235.538 1841.77 231.792 1841.77 227.885V223.539C1841.77 220.205 1844.47 217.502 1847.81 217.502C1851.14 217.502 1853.84 220.205 1853.84 223.539V227.885C1853.84 228.59 1854.12 229.265 1854.62 229.763C1855.12 230.262 1855.8 230.541 1856.5 230.541H1882.58C1884.18 230.541 1885.71 231.177 1886.85 232.309L1893.93 239.39V206.154C1893.93 205.449 1893.65 204.774 1893.15 204.275C1892.65 203.777 1891.98 203.497 1891.27 203.497H1882.58C1879.24 203.497 1876.54 200.795 1876.54 197.461Z" fill="#1B2973"/>
<path fill-rule="evenodd" clip-rule="evenodd" d="M1722.73 333.073C1721.28 333.073 1720.07 334.282 1720.07 335.729V368.965L1727.15 361.885C1728.29 360.753 1729.82 360.117 1731.42 360.117H1757.5C1758.2 360.117 1758.88 359.837 1759.38 359.339C1759.88 358.841 1760.16 358.165 1760.16 357.461V335.729C1760.16 335.025 1759.88 334.349 1759.38 333.851C1758.88 333.353 1758.2 333.073 1757.5 333.073H1722.73ZM1708 335.729C1708 327.614 1714.61 321 1722.73 321H1757.5C1761.41 321 1765.15 322.552 1767.92 325.314C1770.68 328.076 1772.23 331.823 1772.23 335.729V357.461C1772.23 361.367 1770.68 365.114 1767.92 367.876C1765.15 370.638 1761.41 372.19 1757.5 372.19H1733.92L1718.31 387.807C1716.58 389.534 1713.98 390.05 1711.73 389.116C1709.47 388.182 1708 385.98 1708 383.539V335.729ZM1777.54 357.461C1777.54 354.127 1780.24 351.424 1783.58 351.424H1792.27C1796.18 351.424 1799.92 352.976 1802.69 355.738C1805.45 358.501 1807 362.247 1807 366.154V413.963C1807 416.405 1805.53 418.606 1803.27 419.54C1801.02 420.475 1798.42 419.958 1796.69 418.232L1781.08 402.614H1757.5C1753.59 402.614 1749.85 401.063 1747.08 398.3C1744.32 395.538 1742.77 391.792 1742.77 387.885V383.539C1742.77 380.205 1745.47 377.502 1748.81 377.502C1752.14 377.502 1754.84 380.205 1754.84 383.539V387.885C1754.84 388.59 1755.12 389.265 1755.62 389.763C1756.12 390.262 1756.8 390.541 1757.5 390.541H1783.58C1785.18 390.541 1786.71 391.177 1787.85 392.309L1794.93 399.39V366.154C1794.93 365.449 1794.65 364.774 1794.15 364.275C1793.65 363.777 1792.98 363.497 1792.27 363.497H1783.58C1780.24 363.497 1777.54 360.795 1777.54 357.461Z" fill="#1B2973"/>
<path fill-rule="evenodd" clip-rule="evenodd" d="M1722.73 653.073C1721.28 653.073 1720.07 654.282 1720.07 655.729V688.965L1727.15 681.885C1728.29 680.753 1729.82 680.117 1731.42 680.117H1757.5C1758.2 680.117 1758.88 679.837 1759.38 679.339C1759.88 678.841 1760.16 678.165 1760.16 677.461V655.729C1760.16 655.025 1759.88 654.349 1759.38 653.851C1758.88 653.353 1758.2 653.073 1757.5 653.073H1722.73ZM1708 655.729C1708 647.614 1714.61 641 1722.73 641H1757.5C1761.41 641 1765.15 642.552 1767.92 645.314C1770.68 648.076 1772.23 651.823 1772.23 655.729V677.461C1772.23 681.367 1770.68 685.114 1767.92 687.876C1765.15 690.638 1761.41 692.19 1757.5 692.19H1733.92L1718.31 707.807C1716.58 709.534 1713.98 710.05 1711.73 709.116C1709.47 708.182 1708 705.98 1708 703.539V655.729ZM1777.54 677.461C1777.54 674.127 1780.24 671.424 1783.58 671.424H1792.27C1796.18 671.424 1799.92 672.976 1802.69 675.738C1805.45 678.501 1807 682.247 1807 686.154V733.963C1807 736.405 1805.53 738.606 1803.27 739.54C1801.02 740.475 1798.42 739.958 1796.69 738.232L1781.08 722.614H1757.5C1753.59 722.614 1749.85 721.063 1747.08 718.3C1744.32 715.538 1742.77 711.792 1742.77 707.885V703.539C1742.77 700.205 1745.47 697.502 1748.81 697.502C1752.14 697.502 1754.84 700.205 1754.84 703.539V707.885C1754.84 708.59 1755.12 709.265 1755.62 709.763C1756.12 710.262 1756.8 710.541 1757.5 710.541H1783.58C1785.18 710.541 1786.71 711.177 1787.85 712.309L1794.93 719.39V686.154C1794.93 685.449 1794.65 684.774 1794.15 684.275C1793.65 683.777 1792.98 683.497 1792.27 683.497H1783.58C1780.24 683.497 1777.54 680.795 1777.54 677.461Z" fill="#1B2973"/>
<path fill-rule="evenodd" clip-rule="evenodd" d="M1701.73 973.073C1700.28 973.073 1699.07 974.282 1699.07 975.729V1008.97L1706.15 1001.89C1707.29 1000.75 1708.82 1000.12 1710.42 1000.12H1736.5C1737.2 1000.12 1737.88 999.837 1738.38 999.339C1738.88 998.841 1739.16 998.165 1739.16 997.461V975.729C1739.16 975.025 1738.88 974.349 1738.38 973.851C1737.88 973.353 1737.2 973.073 1736.5 973.073H1701.73ZM1687 975.729C1687 967.614 1693.61 961 1701.73 961H1736.5C1740.41 961 1744.15 962.552 1746.92 965.314C1749.68 968.076 1751.23 971.823 1751.23 975.729V997.461C1751.23 1001.37 1749.68 1005.11 1746.92 1007.88C1744.15 1010.64 1740.41 1012.19 1736.5 1012.19H1712.92L1697.31 1027.81C1695.58 1029.53 1692.98 1030.05 1690.73 1029.12C1688.47 1028.18 1687 1025.98 1687 1023.54V975.729ZM1756.54 997.461C1756.54 994.127 1759.24 991.424 1762.58 991.424H1771.27C1775.18 991.424 1778.92 992.976 1781.69 995.738C1784.45 998.501 1786 1002.25 1786 1006.15V1053.96C1786 1056.4 1784.53 1058.61 1782.27 1059.54C1780.02 1060.47 1777.42 1059.96 1775.69 1058.23L1760.08 1042.61H1736.5C1732.59 1042.61 1728.85 1041.06 1726.08 1038.3C1723.32 1035.54 1721.77 1031.79 1721.77 1027.89V1023.54C1721.77 1020.21 1724.47 1017.5 1727.81 1017.5C1731.14 1017.5 1733.84 1020.21 1733.84 1023.54V1027.89C1733.84 1028.59 1734.12 1029.27 1734.62 1029.76C1735.12 1030.26 1735.8 1030.54 1736.5 1030.54H1762.58C1764.18 1030.54 1765.71 1031.18 1766.85 1032.31L1773.93 1039.39V1006.15C1773.93 1005.45 1773.65 1004.77 1773.15 1004.28C1772.65 1003.78 1771.98 1003.5 1771.27 1003.5H1762.58C1759.24 1003.5 1756.54 1000.79 1756.54 997.461Z" fill="#1B2973"/>
<path fill-rule="evenodd" clip-rule="evenodd" d="M1821.73 493.073C1820.28 493.073 1819.07 494.282 1819.07 495.729V528.965L1826.15 521.885C1827.29 520.753 1828.82 520.117 1830.42 520.117H1856.5C1857.2 520.117 1857.88 519.837 1858.38 519.339C1858.88 518.841 1859.16 518.165 1859.16 517.461V495.729C1859.16 495.025 1858.88 494.349 1858.38 493.851C1857.88 493.353 1857.2 493.073 1856.5 493.073H1821.73ZM1807 495.729C1807 487.614 1813.61 481 1821.73 481H1856.5C1860.41 481 1864.15 482.552 1866.92 485.314C1869.68 488.076 1871.23 491.823 1871.23 495.729V517.461C1871.23 521.367 1869.68 525.114 1866.92 527.876C1864.15 530.638 1860.41 532.19 1856.5 532.19H1832.92L1817.31 547.807C1815.58 549.534 1812.98 550.05 1810.73 549.116C1808.47 548.182 1807 545.98 1807 543.539V495.729ZM1876.54 517.461C1876.54 514.127 1879.24 511.424 1882.58 511.424H1891.27C1895.18 511.424 1898.92 512.976 1901.69 515.738C1904.45 518.501 1906 522.247 1906 526.154V573.963C1906 576.405 1904.53 578.606 1902.27 579.54C1900.02 580.475 1897.42 579.958 1895.69 578.232L1880.08 562.614H1856.5C1852.59 562.614 1848.85 561.063 1846.08 558.3C1843.32 555.538 1841.77 551.792 1841.77 547.885V543.539C1841.77 540.205 1844.47 537.502 1847.81 537.502C1851.14 537.502 1853.84 540.205 1853.84 543.539V547.885C1853.84 548.59 1854.12 549.265 1854.62 549.763C1855.12 550.262 1855.8 550.541 1856.5 550.541H1882.58C1884.18 550.541 1885.71 551.177 1886.85 552.309L1893.93 559.39V526.154C1893.93 525.449 1893.65 524.774 1893.15 524.275C1892.65 523.777 1891.98 523.497 1891.27 523.497H1882.58C1879.24 523.497 1876.54 520.795 1876.54 517.461Z" fill="#1B2973"/>
<path fill-rule="evenodd" clip-rule="evenodd" d="M1800.73 813.073C1799.28 813.073 1798.07 814.282 1798.07 815.729V848.965L1805.15 841.885C1806.29 840.753 1807.82 840.117 1809.42 840.117H1835.5C1836.2 840.117 1836.88 839.837 1837.38 839.339C1837.88 838.841 1838.16 838.165 1838.16 837.461V815.729C1838.16 815.025 1837.88 814.349 1837.38 813.851C1836.88 813.353 1836.2 813.073 1835.5 813.073H1800.73ZM1786 815.729C1786 807.614 1792.61 801 1800.73 801H1835.5C1839.41 801 1843.15 802.552 1845.92 805.314C1848.68 808.076 1850.23 811.823 1850.23 815.729V837.461C1850.23 841.367 1848.68 845.114 1845.92 847.876C1843.15 850.638 1839.41 852.19 1835.5 852.19H1811.92L1796.31 867.807C1794.58 869.534 1791.98 870.05 1789.73 869.116C1787.47 868.182 1786 865.98 1786 863.539V815.729ZM1855.54 837.461C1855.54 834.127 1858.24 831.424 1861.58 831.424H1870.27C1874.18 831.424 1877.92 832.976 1880.69 835.738C1883.45 838.501 1885 842.247 1885 846.154V893.963C1885 896.405 1883.53 898.606 1881.27 899.54C1879.02 900.475 1876.42 899.958 1874.69 898.232L1859.08 882.614H1835.5C1831.59 882.614 1827.85 881.063 1825.08 878.3C1822.32 875.538 1820.77 871.792 1820.77 867.885V863.539C1820.77 860.205 1823.47 857.502 1826.81 857.502C1830.14 857.502 1832.84 860.205 1832.84 863.539V867.885C1832.84 868.59 1833.12 869.265 1833.62 869.763C1834.12 870.262 1834.8 870.541 1835.5 870.541H1861.58C1863.18 870.541 1864.71 871.177 1865.85 872.309L1872.93 879.39V846.154C1872.93 845.449 1872.65 844.774 1872.15 844.275C1871.65 843.777 1870.98 843.497 1870.27 843.497H1861.58C1858.24 843.497 1855.54 840.795 1855.54 837.461Z" fill="#1B2973"/>
</g>
</svg>
