<svg width="418" height="100" viewBox="0 0 418 100" fill="none" xmlns="http://www.w3.org/2000/svg">
<path fill-rule="evenodd" clip-rule="evenodd" d="M14.878 12.1951C13.4164 12.1951 12.1951 13.4163 12.1951 14.878V48.4498L19.3469 41.2981C20.4904 40.1545 22.0414 39.5121 23.6585 39.5121H50C50.7116 39.5121 51.394 39.2295 51.8971 38.7263C52.4003 38.2232 52.6829 37.5408 52.6829 36.8292V14.878C52.6829 14.1665 52.4003 13.4841 51.8971 12.9809C51.394 12.4778 50.7116 12.1951 50 12.1951H14.878ZM0 14.878C0 6.68118 6.68119 0 14.878 0H50C53.9459 0 57.7302 1.5675 60.5204 4.35767C63.3105 7.14784 64.8781 10.9321 64.8781 14.878V36.8292C64.8781 40.7751 63.3105 44.5594 60.5204 47.3496C57.7302 50.1397 53.9459 51.7072 50 51.7072H26.1842L10.4092 67.4822C8.6653 69.2261 6.04263 69.7478 3.76413 68.804C1.48562 67.8602 0 65.6369 0 63.1706V14.878ZM70.2439 36.8292C70.2439 33.4616 72.9739 30.7317 76.3415 30.7317H85.122C89.0679 30.7317 92.8521 32.2992 95.6423 35.0893C98.4325 37.8795 100 41.6638 100 45.6097V93.9023C100 96.3685 98.5144 98.5919 96.2359 99.5357C93.9574 100.479 91.3347 99.9578 89.5908 98.2139L73.8158 82.4389H50C46.0541 82.4389 42.2698 80.8714 39.4796 78.0812C36.6895 75.291 35.122 71.5068 35.122 67.5609V63.1706C35.122 59.803 37.8519 57.0731 41.2195 57.0731C44.5871 57.0731 47.3171 59.803 47.3171 63.1706V67.5609C47.3171 68.2724 47.5997 68.9548 48.1029 69.458C48.606 69.9611 49.2885 70.2438 50 70.2438H76.3415C77.9586 70.2438 79.5096 70.8862 80.6531 72.0297L87.8049 79.1815V45.6097C87.8049 44.8981 87.5222 44.2157 87.0191 43.7126C86.5159 43.2094 85.8335 42.9268 85.122 42.9268H76.3415C72.9739 42.9268 70.2439 40.1968 70.2439 36.8292Z" fill="#F0A202"/>
<path d="M128.87 43.54C124.91 43.54 121.508 42.748 118.664 41.164C115.856 39.544 113.696 37.276 112.184 34.36C110.672 31.408 109.916 27.934 109.916 23.938C109.916 20.95 110.348 18.268 111.212 15.892C112.076 13.48 113.318 11.428 114.938 9.736C116.558 8.008 118.538 6.694 120.878 5.794C123.254 4.858 125.918 4.39 128.87 4.39C130.85 4.39 132.794 4.642 134.702 5.146C136.61 5.65 138.284 6.37 139.724 7.306C140.48 7.774 140.984 8.35 141.236 9.034C141.488 9.682 141.542 10.33 141.398 10.978C141.254 11.59 140.948 12.112 140.48 12.544C140.048 12.976 139.49 13.228 138.806 13.3C138.158 13.336 137.438 13.102 136.646 12.598C135.53 11.878 134.324 11.356 133.028 11.032C131.732 10.708 130.418 10.546 129.086 10.546C126.53 10.546 124.37 11.068 122.606 12.112C120.842 13.156 119.51 14.668 118.61 16.648C117.71 18.628 117.26 21.058 117.26 23.938C117.26 26.782 117.71 29.212 118.61 31.228C119.51 33.244 120.842 34.774 122.606 35.818C124.37 36.862 126.53 37.384 129.086 37.384C130.454 37.384 131.804 37.222 133.136 36.898C134.468 36.538 135.728 35.998 136.916 35.278C137.708 34.81 138.41 34.612 139.022 34.684C139.67 34.72 140.21 34.936 140.642 35.332C141.074 35.728 141.362 36.232 141.506 36.844C141.65 37.42 141.614 38.032 141.398 38.68C141.182 39.292 140.75 39.832 140.102 40.3C138.662 41.344 136.934 42.154 134.918 42.73C132.938 43.27 130.922 43.54 128.87 43.54ZM161.569 43.54C158.581 43.54 156.007 42.982 153.847 41.866C151.687 40.75 150.013 39.166 148.825 37.114C147.673 35.062 147.097 32.632 147.097 29.824C147.097 27.088 147.655 24.694 148.771 22.642C149.923 20.59 151.489 18.988 153.469 17.836C155.485 16.648 157.771 16.054 160.327 16.054C162.199 16.054 163.873 16.36 165.349 16.972C166.861 17.584 168.139 18.466 169.183 19.618C170.263 20.77 171.073 22.174 171.613 23.83C172.189 25.45 172.477 27.286 172.477 29.338C172.477 29.986 172.243 30.49 171.775 30.85C171.343 31.174 170.713 31.336 169.885 31.336H152.551V27.448H167.725L166.861 28.258C166.861 26.602 166.609 25.216 166.105 24.1C165.637 22.984 164.935 22.138 163.999 21.562C163.099 20.95 161.965 20.644 160.597 20.644C159.085 20.644 157.789 21.004 156.709 21.724C155.665 22.408 154.855 23.398 154.279 24.694C153.739 25.954 153.469 27.466 153.469 29.23V29.608C153.469 32.56 154.153 34.774 155.521 36.25C156.925 37.69 158.977 38.41 161.677 38.41C162.613 38.41 163.657 38.302 164.809 38.086C165.997 37.834 167.113 37.42 168.157 36.844C168.913 36.412 169.579 36.232 170.155 36.304C170.731 36.34 171.181 36.538 171.505 36.898C171.865 37.258 172.081 37.708 172.153 38.248C172.225 38.752 172.117 39.274 171.829 39.814C171.577 40.354 171.127 40.822 170.479 41.218C169.219 42.01 167.761 42.604 166.105 43C164.485 43.36 162.973 43.54 161.569 43.54ZM184.41 43.432C183.33 43.432 182.502 43.144 181.926 42.568C181.35 41.956 181.062 41.092 181.062 39.976V19.564C181.062 18.448 181.35 17.602 181.926 17.026C182.502 16.45 183.312 16.162 184.356 16.162C185.4 16.162 186.21 16.45 186.786 17.026C187.362 17.602 187.65 18.448 187.65 19.564V23.236L187.056 21.886C187.848 19.978 189.072 18.538 190.728 17.566C192.42 16.558 194.328 16.054 196.452 16.054C198.576 16.054 200.322 16.45 201.69 17.242C203.058 18.034 204.084 19.24 204.768 20.86C205.452 22.444 205.794 24.46 205.794 26.908V39.976C205.794 41.092 205.506 41.956 204.93 42.568C204.354 43.144 203.526 43.432 202.446 43.432C201.366 43.432 200.52 43.144 199.908 42.568C199.332 41.956 199.044 41.092 199.044 39.976V27.232C199.044 25.18 198.648 23.686 197.856 22.75C197.1 21.814 195.912 21.346 194.292 21.346C192.312 21.346 190.728 21.976 189.54 23.236C188.388 24.46 187.812 26.098 187.812 28.15V39.976C187.812 42.28 186.678 43.432 184.41 43.432ZM227.986 43.54C225.646 43.54 223.684 43.144 222.1 42.352C220.552 41.56 219.4 40.408 218.644 38.896C217.888 37.348 217.51 35.44 217.51 33.172V21.67H214.702C213.838 21.67 213.172 21.454 212.704 21.022C212.236 20.554 212.002 19.924 212.002 19.132C212.002 18.304 212.236 17.674 212.704 17.242C213.172 16.81 213.838 16.594 214.702 16.594H217.51V11.68C217.51 10.564 217.798 9.718 218.374 9.142C218.986 8.566 219.832 8.278 220.912 8.278C221.992 8.278 222.82 8.566 223.396 9.142C223.972 9.718 224.26 10.564 224.26 11.68V16.594H229.984C230.848 16.594 231.514 16.81 231.982 17.242C232.45 17.674 232.684 18.304 232.684 19.132C232.684 19.924 232.45 20.554 231.982 21.022C231.514 21.454 230.848 21.67 229.984 21.67H224.26V32.794C224.26 34.522 224.638 35.818 225.394 36.682C226.15 37.546 227.374 37.978 229.066 37.978C229.678 37.978 230.218 37.924 230.686 37.816C231.154 37.708 231.568 37.636 231.928 37.6C232.36 37.564 232.72 37.708 233.008 38.032C233.296 38.32 233.44 38.932 233.44 39.868C233.44 40.588 233.314 41.236 233.062 41.812C232.846 42.352 232.432 42.73 231.82 42.946C231.352 43.09 230.74 43.216 229.984 43.324C229.228 43.468 228.562 43.54 227.986 43.54ZM243.311 43.432C242.195 43.432 241.331 43.144 240.719 42.568C240.143 41.956 239.855 41.092 239.855 39.976V19.564C239.855 18.448 240.143 17.602 240.719 17.026C241.295 16.45 242.105 16.162 243.149 16.162C244.193 16.162 245.003 16.45 245.579 17.026C246.155 17.602 246.443 18.448 246.443 19.564V22.966H245.903C246.407 20.806 247.397 19.168 248.873 18.052C250.349 16.936 252.311 16.27 254.759 16.054C255.515 15.982 256.109 16.18 256.541 16.648C257.009 17.08 257.279 17.764 257.351 18.7C257.423 19.6 257.207 20.338 256.703 20.914C256.235 21.454 255.515 21.778 254.543 21.886L253.355 21.994C251.159 22.21 249.503 22.894 248.387 24.046C247.271 25.162 246.713 26.746 246.713 28.798V39.976C246.713 41.092 246.425 41.956 245.849 42.568C245.273 43.144 244.427 43.432 243.311 43.432ZM275.861 43.54C273.125 43.54 270.749 42.982 268.733 41.866C266.717 40.75 265.151 39.166 264.035 37.114C262.919 35.026 262.361 32.578 262.361 29.77C262.361 27.646 262.667 25.756 263.279 24.1C263.927 22.408 264.845 20.968 266.033 19.78C267.221 18.556 268.643 17.638 270.299 17.026C271.955 16.378 273.809 16.054 275.861 16.054C278.597 16.054 280.973 16.612 282.989 17.728C285.005 18.844 286.571 20.428 287.687 22.48C288.803 24.532 289.361 26.962 289.361 29.77C289.361 31.894 289.037 33.802 288.389 35.494C287.777 37.186 286.877 38.644 285.689 39.868C284.501 41.056 283.079 41.974 281.423 42.622C279.767 43.234 277.913 43.54 275.861 43.54ZM275.861 38.41C277.193 38.41 278.363 38.086 279.371 37.438C280.379 36.79 281.153 35.836 281.693 34.576C282.269 33.28 282.557 31.678 282.557 29.77C282.557 26.89 281.945 24.748 280.721 23.344C279.497 21.904 277.877 21.184 275.861 21.184C274.529 21.184 273.359 21.508 272.351 22.156C271.343 22.768 270.551 23.722 269.975 25.018C269.435 26.278 269.165 27.862 269.165 29.77C269.165 32.614 269.777 34.774 271.001 36.25C272.225 37.69 273.845 38.41 275.861 38.41ZM326.225 43.54C323.921 43.54 321.887 42.982 320.123 41.866C318.395 40.75 317.045 39.166 316.073 37.114C315.101 35.026 314.615 32.578 314.615 29.77C314.615 26.926 315.101 24.496 316.073 22.48C317.045 20.428 318.395 18.844 320.123 17.728C321.887 16.612 323.921 16.054 326.225 16.054C328.421 16.054 330.329 16.594 331.949 17.674C333.605 18.754 334.721 20.176 335.297 21.94H334.703V7.9C334.703 6.784 334.991 5.938 335.567 5.362C336.143 4.786 336.971 4.498 338.051 4.498C339.131 4.498 339.959 4.786 340.535 5.362C341.147 5.938 341.453 6.784 341.453 7.9V39.976C341.453 41.092 341.165 41.956 340.589 42.568C340.013 43.144 339.185 43.432 338.105 43.432C337.025 43.432 336.197 43.144 335.621 42.568C335.045 41.956 334.757 41.092 334.757 39.976V35.764L335.351 37.384C334.811 39.256 333.713 40.75 332.057 41.866C330.401 42.982 328.457 43.54 326.225 43.54ZM328.115 38.41C329.447 38.41 330.617 38.086 331.625 37.438C332.633 36.79 333.407 35.836 333.947 34.576C334.523 33.28 334.811 31.678 334.811 29.77C334.811 26.89 334.199 24.748 332.975 23.344C331.751 21.904 330.131 21.184 328.115 21.184C326.783 21.184 325.613 21.508 324.605 22.156C323.597 22.768 322.805 23.722 322.229 25.018C321.689 26.278 321.419 27.862 321.419 29.77C321.419 32.614 322.031 34.774 323.255 36.25C324.479 37.69 326.099 38.41 328.115 38.41ZM364.706 43.54C361.718 43.54 359.144 42.982 356.984 41.866C354.824 40.75 353.15 39.166 351.962 37.114C350.81 35.062 350.234 32.632 350.234 29.824C350.234 27.088 350.792 24.694 351.908 22.642C353.06 20.59 354.626 18.988 356.606 17.836C358.622 16.648 360.908 16.054 363.464 16.054C365.336 16.054 367.01 16.36 368.486 16.972C369.998 17.584 371.276 18.466 372.32 19.618C373.4 20.77 374.21 22.174 374.75 23.83C375.326 25.45 375.614 27.286 375.614 29.338C375.614 29.986 375.38 30.49 374.912 30.85C374.48 31.174 373.85 31.336 373.022 31.336H355.688V27.448H370.862L369.998 28.258C369.998 26.602 369.746 25.216 369.242 24.1C368.774 22.984 368.072 22.138 367.136 21.562C366.236 20.95 365.102 20.644 363.734 20.644C362.222 20.644 360.926 21.004 359.846 21.724C358.802 22.408 357.992 23.398 357.416 24.694C356.876 25.954 356.606 27.466 356.606 29.23V29.608C356.606 32.56 357.29 34.774 358.658 36.25C360.062 37.69 362.114 38.41 364.814 38.41C365.75 38.41 366.794 38.302 367.946 38.086C369.134 37.834 370.25 37.42 371.294 36.844C372.05 36.412 372.716 36.232 373.292 36.304C373.868 36.34 374.318 36.538 374.642 36.898C375.002 37.258 375.218 37.708 375.29 38.248C375.362 38.752 375.254 39.274 374.966 39.814C374.714 40.354 374.264 40.822 373.616 41.218C372.356 42.01 370.898 42.604 369.242 43C367.622 43.36 366.11 43.54 364.706 43.54ZM114.668 89C113.552 89 112.688 88.694 112.076 88.082C111.464 87.434 111.158 86.552 111.158 85.436V54.278C111.158 53.126 111.446 52.262 112.022 51.686C112.634 51.074 113.498 50.768 114.614 50.768C115.73 50.768 116.576 51.074 117.152 51.686C117.764 52.262 118.07 53.126 118.07 54.278V83.114H133.73C134.702 83.114 135.44 83.366 135.944 83.87C136.484 84.374 136.754 85.094 136.754 86.03C136.754 86.966 136.484 87.704 135.944 88.244C135.44 88.748 134.702 89 133.73 89H114.668ZM147.42 89.378C146.34 89.378 145.512 89.054 144.936 88.406C144.36 87.758 144.072 86.858 144.072 85.706V65.888C144.072 64.7 144.36 63.8 144.936 63.188C145.512 62.54 146.34 62.216 147.42 62.216C148.5 62.216 149.328 62.54 149.904 63.188C150.516 63.8 150.822 64.7 150.822 65.888V85.706C150.822 86.858 150.534 87.758 149.958 88.406C149.382 89.054 148.536 89.378 147.42 89.378ZM149.958 58.76C149.598 59.264 149.166 59.552 148.662 59.624C148.158 59.696 147.672 59.606 147.204 59.354C146.736 59.102 146.394 58.742 146.178 58.274C145.998 57.806 146.052 57.284 146.34 56.708L150.444 48.662C150.768 47.978 151.2 47.546 151.74 47.366C152.28 47.15 152.838 47.114 153.414 47.258C153.99 47.402 154.476 47.672 154.872 48.068C155.304 48.464 155.556 48.95 155.628 49.526C155.736 50.066 155.592 50.624 155.196 51.2L149.958 58.76ZM164.424 89.432C163.344 89.432 162.516 89.144 161.94 88.568C161.364 87.956 161.076 87.092 161.076 85.976V65.564C161.076 64.448 161.364 63.602 161.94 63.026C162.516 62.45 163.326 62.162 164.37 62.162C165.414 62.162 166.224 62.45 166.8 63.026C167.376 63.602 167.664 64.448 167.664 65.564V69.236L167.07 67.886C167.862 65.978 169.086 64.538 170.742 63.566C172.434 62.558 174.342 62.054 176.466 62.054C178.59 62.054 180.336 62.45 181.704 63.242C183.072 64.034 184.098 65.24 184.782 66.86C185.466 68.444 185.808 70.46 185.808 72.908V85.976C185.808 87.092 185.52 87.956 184.944 88.568C184.368 89.144 183.54 89.432 182.46 89.432C181.38 89.432 180.534 89.144 179.922 88.568C179.346 87.956 179.058 87.092 179.058 85.976V73.232C179.058 71.18 178.662 69.686 177.87 68.75C177.114 67.814 175.926 67.346 174.306 67.346C172.326 67.346 170.742 67.976 169.554 69.236C168.402 70.46 167.826 72.098 167.826 74.15V85.976C167.826 88.28 166.692 89.432 164.424 89.432ZM208.216 99.26C206.272 99.26 204.382 99.08 202.546 98.72C200.746 98.36 199.108 97.802 197.632 97.046C196.948 96.686 196.48 96.254 196.228 95.75C196.012 95.246 195.94 94.724 196.012 94.184C196.12 93.68 196.336 93.23 196.66 92.834C197.02 92.438 197.452 92.168 197.956 92.024C198.46 91.88 198.982 91.952 199.522 92.24C201.106 93.032 202.6 93.536 204.004 93.752C205.444 94.004 206.668 94.13 207.676 94.13C210.088 94.13 211.888 93.536 213.076 92.348C214.3 91.196 214.912 89.468 214.912 87.164V82.304H215.398C214.858 84.14 213.724 85.616 211.996 86.732C210.304 87.812 208.378 88.352 206.218 88.352C203.842 88.352 201.772 87.812 200.008 86.732C198.244 85.616 196.876 84.068 195.904 82.088C194.932 80.108 194.446 77.804 194.446 75.176C194.446 73.196 194.716 71.414 195.256 69.83C195.832 68.21 196.624 66.824 197.632 65.672C198.676 64.52 199.918 63.638 201.358 63.026C202.834 62.378 204.454 62.054 206.218 62.054C208.45 62.054 210.394 62.612 212.05 63.728C213.742 64.808 214.84 66.248 215.344 68.048L214.804 69.398V65.564C214.804 64.448 215.092 63.602 215.668 63.026C216.28 62.45 217.108 62.162 218.152 62.162C219.232 62.162 220.06 62.45 220.636 63.026C221.212 63.602 221.5 64.448 221.5 65.564V86.354C221.5 90.638 220.366 93.86 218.098 96.02C215.83 98.18 212.536 99.26 208.216 99.26ZM208.054 83.222C209.458 83.222 210.664 82.898 211.672 82.25C212.68 81.602 213.454 80.684 213.994 79.496C214.57 78.272 214.858 76.832 214.858 75.176C214.858 72.692 214.246 70.748 213.022 69.344C211.798 67.904 210.142 67.184 208.054 67.184C206.65 67.184 205.444 67.508 204.436 68.156C203.428 68.804 202.636 69.722 202.06 70.91C201.52 72.098 201.25 73.52 201.25 75.176C201.25 77.66 201.862 79.622 203.086 81.062C204.31 82.502 205.966 83.222 208.054 83.222ZM241.292 89.54C239.096 89.54 237.278 89.144 235.838 88.352C234.398 87.524 233.318 86.3 232.598 84.68C231.914 83.06 231.572 81.044 231.572 78.632V65.564C231.572 64.412 231.86 63.566 232.436 63.026C233.012 62.45 233.84 62.162 234.92 62.162C236 62.162 236.828 62.45 237.404 63.026C238.016 63.566 238.322 64.412 238.322 65.564V78.74C238.322 80.612 238.7 81.998 239.456 82.898C240.212 83.798 241.418 84.248 243.074 84.248C244.874 84.248 246.35 83.636 247.502 82.412C248.654 81.152 249.23 79.496 249.23 77.444V65.564C249.23 64.412 249.518 63.566 250.094 63.026C250.67 62.45 251.498 62.162 252.578 62.162C253.658 62.162 254.486 62.45 255.062 63.026C255.674 63.566 255.98 64.412 255.98 65.564V85.976C255.98 88.28 254.882 89.432 252.686 89.432C251.642 89.432 250.832 89.144 250.256 88.568C249.68 87.956 249.392 87.092 249.392 85.976V81.872L250.148 83.492C249.392 85.436 248.24 86.93 246.692 87.974C245.18 89.018 243.38 89.54 241.292 89.54ZM274.939 89.54C273.031 89.54 271.321 89.18 269.809 88.46C268.333 87.704 267.163 86.696 266.299 85.436C265.471 84.176 265.057 82.754 265.057 81.17C265.057 79.226 265.561 77.696 266.569 76.58C267.577 75.428 269.215 74.6 271.483 74.096C273.751 73.592 276.793 73.34 280.609 73.34H283.309V77.228H280.663C278.431 77.228 276.649 77.336 275.317 77.552C273.985 77.768 273.031 78.146 272.455 78.686C271.915 79.19 271.645 79.91 271.645 80.846C271.645 82.034 272.059 83.006 272.887 83.762C273.715 84.518 274.867 84.896 276.343 84.896C277.531 84.896 278.575 84.626 279.475 84.086C280.411 83.51 281.149 82.736 281.689 81.764C282.229 80.792 282.499 79.676 282.499 78.416V72.206C282.499 70.406 282.103 69.11 281.311 68.318C280.519 67.526 279.187 67.13 277.315 67.13C276.271 67.13 275.137 67.256 273.913 67.508C272.725 67.76 271.465 68.192 270.133 68.804C269.449 69.128 268.837 69.218 268.297 69.074C267.793 68.93 267.397 68.642 267.109 68.21C266.821 67.742 266.677 67.238 266.677 66.698C266.677 66.158 266.821 65.636 267.109 65.132C267.397 64.592 267.883 64.196 268.567 63.944C270.223 63.26 271.807 62.774 273.319 62.486C274.867 62.198 276.271 62.054 277.531 62.054C280.123 62.054 282.247 62.45 283.903 63.242C285.595 64.034 286.855 65.24 287.683 66.86C288.511 68.444 288.925 70.496 288.925 73.016V85.976C288.925 87.092 288.655 87.956 288.115 88.568C287.575 89.144 286.801 89.432 285.793 89.432C284.785 89.432 283.993 89.144 283.417 88.568C282.877 87.956 282.607 87.092 282.607 85.976V83.384H283.039C282.787 84.644 282.283 85.742 281.527 86.678C280.807 87.578 279.889 88.28 278.773 88.784C277.657 89.288 276.379 89.54 274.939 89.54ZM308.682 89.54C307.134 89.54 305.496 89.378 303.768 89.054C302.04 88.73 300.492 88.172 299.124 87.38C298.548 87.02 298.134 86.606 297.882 86.138C297.666 85.634 297.576 85.148 297.612 84.68C297.684 84.176 297.864 83.744 298.152 83.384C298.476 83.024 298.872 82.79 299.34 82.682C299.844 82.574 300.384 82.664 300.96 82.952C302.4 83.636 303.75 84.122 305.01 84.41C306.27 84.662 307.512 84.788 308.736 84.788C310.464 84.788 311.742 84.5 312.57 83.924C313.434 83.312 313.866 82.52 313.866 81.548C313.866 80.72 313.578 80.09 313.002 79.658C312.462 79.19 311.634 78.848 310.518 78.632L305.118 77.606C302.886 77.174 301.176 76.364 299.988 75.176C298.836 73.952 298.26 72.386 298.26 70.478C298.26 68.75 298.728 67.256 299.664 65.996C300.636 64.736 301.968 63.764 303.66 63.08C305.352 62.396 307.296 62.054 309.492 62.054C311.076 62.054 312.552 62.234 313.92 62.594C315.324 62.918 316.674 63.44 317.97 64.16C318.51 64.448 318.87 64.826 319.05 65.294C319.266 65.762 319.32 66.248 319.212 66.752C319.104 67.22 318.888 67.652 318.564 68.048C318.24 68.408 317.826 68.642 317.322 68.75C316.854 68.822 316.314 68.714 315.702 68.426C314.586 67.85 313.506 67.436 312.462 67.184C311.454 66.932 310.482 66.806 309.546 66.806C307.782 66.806 306.468 67.112 305.604 67.724C304.776 68.336 304.362 69.146 304.362 70.154C304.362 70.91 304.614 71.54 305.118 72.044C305.622 72.548 306.396 72.89 307.44 73.07L312.84 74.096C315.18 74.528 316.944 75.32 318.132 76.472C319.356 77.624 319.968 79.172 319.968 81.116C319.968 83.744 318.942 85.814 316.89 87.326C314.838 88.802 312.102 89.54 308.682 89.54Z" fill="#FFFAFB"/>
</svg>
