<svg width="439" height="109" viewBox="0 0 439 109" fill="none" xmlns="http://www.w3.org/2000/svg">
<path d="M162.36 42.638C157.836 42.638 153.95 41.768 150.702 40.028C147.454 38.288 144.96 35.8327 143.22 32.662C141.519 29.4913 140.668 25.7793 140.668 21.526C140.668 18.3553 141.151 15.4747 142.118 12.884C143.123 10.2933 144.554 8.07 146.41 6.214C148.305 4.358 150.586 2.94667 153.254 1.98C155.961 0.974666 158.996 0.472 162.36 0.472C164.139 0.472 165.975 0.684666 167.87 1.11C169.803 1.49667 171.505 2.096 172.974 2.908C174.057 3.488 174.811 4.22267 175.236 5.112C175.661 6.00133 175.797 6.91 175.642 7.838C175.526 8.766 175.197 9.59733 174.656 10.332C174.115 11.0667 173.419 11.5693 172.568 11.84C171.717 12.072 170.789 11.9367 169.784 11.434C168.624 10.8927 167.464 10.4867 166.304 10.216C165.183 9.90667 164.003 9.752 162.766 9.752C160.369 9.752 158.358 10.216 156.734 11.144C155.149 12.0333 153.95 13.348 153.138 15.088C152.326 16.828 151.92 18.974 151.92 21.526C151.92 24.078 152.326 26.2433 153.138 28.022C153.95 29.762 155.149 31.096 156.734 32.024C158.358 32.9133 160.369 33.358 162.766 33.358C163.771 33.358 164.854 33.242 166.014 33.01C167.174 32.7393 168.315 32.3333 169.436 31.792C170.596 31.2893 171.621 31.154 172.51 31.386C173.438 31.618 174.173 32.082 174.714 32.778C175.294 33.474 175.661 34.286 175.816 35.214C175.971 36.1033 175.835 36.9927 175.41 37.882C175.023 38.7713 174.327 39.4867 173.322 40.028C171.969 40.84 170.287 41.478 168.276 41.942C166.304 42.406 164.332 42.638 162.36 42.638Z" fill="#FFFAFB"/>
<path d="M197.933 42.638C194.453 42.638 191.437 42.0387 188.885 40.84C186.371 39.6027 184.438 37.8627 183.085 35.62C181.731 33.3773 181.055 30.7287 181.055 27.674C181.055 24.7353 181.693 22.164 182.969 19.96C184.283 17.7173 186.062 15.9773 188.305 14.74C190.586 13.464 193.177 12.826 196.077 12.826C198.203 12.826 200.137 13.174 201.877 13.87C203.617 14.5273 205.105 15.5133 206.343 16.828C207.58 18.104 208.508 19.6507 209.127 21.468C209.784 23.2853 210.113 25.3153 210.113 27.558C210.113 28.3313 209.9 28.9113 209.475 29.298C209.049 29.646 208.373 29.82 207.445 29.82H189.697V24.948H202.573L201.645 25.702C201.645 24.2713 201.451 23.1113 201.065 22.222C200.678 21.3327 200.098 20.656 199.325 20.192C198.59 19.728 197.662 19.496 196.541 19.496C195.342 19.496 194.298 19.786 193.409 20.366C192.558 20.9073 191.901 21.7193 191.437 22.802C190.973 23.8847 190.741 25.238 190.741 26.862V27.384C190.741 30.1293 191.34 32.1013 192.539 33.3C193.776 34.46 195.671 35.04 198.223 35.04C199.073 35.04 200.04 34.9433 201.123 34.75C202.244 34.518 203.307 34.2087 204.313 33.822C205.318 33.4353 206.188 33.3773 206.923 33.648C207.657 33.88 208.218 34.3053 208.605 34.924C209.03 35.504 209.262 36.1807 209.301 36.954C209.339 37.6887 209.165 38.4233 208.779 39.158C208.392 39.854 207.754 40.3953 206.865 40.782C205.511 41.4007 204.061 41.8647 202.515 42.174C201.007 42.4833 199.479 42.638 197.933 42.638Z" fill="#FFFAFB"/>
<path d="M223.144 42.522C221.52 42.522 220.264 42.0773 219.374 41.188C218.485 40.2987 218.04 39.0033 218.04 37.302V18.104C218.04 16.4413 218.466 15.1653 219.316 14.276C220.206 13.3867 221.462 12.942 223.086 12.942C224.71 12.942 225.948 13.3867 226.798 14.276C227.649 15.1653 228.074 16.4413 228.074 18.104V20.83L227.436 18.452C228.364 16.6347 229.679 15.2427 231.38 14.276C233.12 13.3093 235.092 12.826 237.296 12.826C239.578 12.826 241.453 13.2707 242.922 14.16C244.392 15.0107 245.494 16.364 246.228 18.22C246.963 20.0373 247.33 22.338 247.33 25.122V37.302C247.33 39.0033 246.886 40.2987 245.996 41.188C245.107 42.0773 243.831 42.522 242.168 42.522C240.506 42.522 239.23 42.0773 238.34 41.188C237.451 40.2987 237.006 39.0033 237.006 37.302V25.528C237.006 23.788 236.697 22.5507 236.078 21.816C235.498 21.0813 234.628 20.714 233.468 20.714C231.922 20.714 230.684 21.2167 229.756 22.222C228.828 23.1887 228.364 24.5033 228.364 26.166V37.302C228.364 40.782 226.624 42.522 223.144 42.522Z" fill="#FFFAFB"/>
<path d="M271.658 42.638C268.758 42.638 266.361 42.1933 264.466 41.304C262.61 40.4147 261.218 39.0807 260.29 37.302C259.362 35.4847 258.898 33.2227 258.898 30.516V21.062H256.926C255.689 21.062 254.722 20.7333 254.026 20.076C253.369 19.4187 253.04 18.4713 253.04 17.234C253.04 15.9967 253.369 15.0687 254.026 14.45C254.722 13.7927 255.689 13.464 256.926 13.464H258.898V9.868C258.898 8.16667 259.343 6.87133 260.232 5.982C261.122 5.09267 262.398 4.648 264.06 4.648C265.723 4.648 266.999 5.09267 267.888 5.982C268.778 6.87133 269.222 8.16667 269.222 9.868V13.464H273.978C275.254 13.464 276.221 13.7927 276.878 14.45C277.574 15.0687 277.922 15.9967 277.922 17.234C277.922 18.4713 277.574 19.4187 276.878 20.076C276.221 20.7333 275.254 21.062 273.978 21.062H269.222V30.168C269.222 31.5987 269.551 32.662 270.208 33.358C270.904 34.0153 271.987 34.344 273.456 34.344C273.998 34.344 274.52 34.286 275.022 34.17C275.525 34.054 275.989 33.996 276.414 33.996C277.033 33.9573 277.536 34.1507 277.922 34.576C278.309 34.9627 278.502 35.8713 278.502 37.302C278.502 38.462 278.328 39.448 277.98 40.26C277.632 41.0333 277.014 41.594 276.124 41.942C275.583 42.1353 274.848 42.29 273.92 42.406C272.992 42.5607 272.238 42.638 271.658 42.638Z" fill="#FFFAFB"/>
<path d="M290.148 42.522C288.446 42.522 287.132 42.0773 286.204 41.188C285.314 40.2987 284.87 39.0033 284.87 37.302V18.104C284.87 16.4413 285.295 15.1653 286.146 14.276C287.035 13.3867 288.292 12.942 289.916 12.942C291.54 12.942 292.777 13.3867 293.628 14.276C294.478 15.1653 294.904 16.4413 294.904 18.104V20.482H294.324C294.71 18.162 295.696 16.3253 297.282 14.972C298.906 13.6187 300.916 12.9033 303.314 12.826C304.435 12.7873 305.266 13.0773 305.808 13.696C306.388 14.276 306.697 15.378 306.736 17.002C306.736 18.394 306.446 19.496 305.866 20.308C305.286 21.12 304.184 21.6033 302.56 21.758L301.226 21.874C299.176 22.0673 297.688 22.6473 296.76 23.614C295.832 24.542 295.368 25.934 295.368 27.79V37.302C295.368 39.0033 294.923 40.2987 294.034 41.188C293.144 42.0773 291.849 42.522 290.148 42.522Z" fill="#FFFAFB"/>
<path d="M327.43 42.638C324.26 42.638 321.495 42.0387 319.136 40.84C316.778 39.6413 314.941 37.9207 313.626 35.678C312.312 33.4353 311.654 30.7867 311.654 27.732C311.654 25.412 312.022 23.3433 312.756 21.526C313.491 19.67 314.554 18.104 315.946 16.828C317.338 15.5133 319.001 14.5273 320.934 13.87C322.868 13.174 325.033 12.826 327.43 12.826C330.601 12.826 333.366 13.4253 335.724 14.624C338.083 15.8227 339.9 17.5433 341.176 19.786C342.491 21.99 343.148 24.6387 343.148 27.732C343.148 30.0133 342.781 32.082 342.046 33.938C341.312 35.794 340.248 37.3793 338.856 38.694C337.503 39.97 335.84 40.956 333.868 41.652C331.935 42.3093 329.789 42.638 327.43 42.638ZM327.43 35.04C328.474 35.04 329.402 34.7887 330.214 34.286C331.026 33.7447 331.645 32.952 332.07 31.908C332.534 30.8253 332.766 29.4333 332.766 27.732C332.766 25.1413 332.264 23.2853 331.258 22.164C330.253 21.004 328.977 20.424 327.43 20.424C326.386 20.424 325.458 20.6753 324.646 21.178C323.834 21.6807 323.196 22.4733 322.732 23.556C322.268 24.6 322.036 25.992 322.036 27.732C322.036 30.284 322.539 32.14 323.544 33.3C324.55 34.46 325.845 35.04 327.43 35.04Z" fill="#FFFAFB"/>
<path d="M382.571 42.638C380.135 42.638 377.969 42.0387 376.075 40.84C374.219 39.6413 372.749 37.9207 371.667 35.678C370.623 33.4353 370.101 30.7867 370.101 27.732C370.101 24.6 370.623 21.932 371.667 19.728C372.749 17.524 374.219 15.8227 376.075 14.624C377.969 13.4253 380.135 12.826 382.571 12.826C384.697 12.826 386.611 13.3287 388.313 14.334C390.014 15.3393 391.155 16.6347 391.735 18.22H391.097V5.808C391.097 4.10667 391.541 2.81133 392.431 1.922C393.32 1.03267 394.596 0.587999 396.259 0.587999C397.883 0.587999 399.139 1.03267 400.029 1.922C400.957 2.81133 401.421 4.10667 401.421 5.808V37.302C401.421 39.0033 400.976 40.2987 400.087 41.188C399.236 42.0773 397.979 42.522 396.317 42.522C394.693 42.522 393.436 42.0773 392.547 41.188C391.657 40.2987 391.213 39.0033 391.213 37.302V33.996L391.851 36.838C391.309 38.578 390.169 39.9893 388.429 41.072C386.727 42.116 384.775 42.638 382.571 42.638ZM385.877 35.04C386.921 35.04 387.849 34.7887 388.661 34.286C389.473 33.7447 390.091 32.952 390.517 31.908C390.981 30.8253 391.213 29.4333 391.213 27.732C391.213 25.1413 390.71 23.2853 389.705 22.164C388.699 21.004 387.423 20.424 385.877 20.424C384.833 20.424 383.905 20.6753 383.093 21.178C382.281 21.6807 381.643 22.4733 381.179 23.556C380.715 24.6 380.483 25.992 380.483 27.732C380.483 30.284 380.985 32.14 381.991 33.3C382.996 34.46 384.291 35.04 385.877 35.04Z" fill="#FFFAFB"/>
<path d="M426.425 42.638C422.945 42.638 419.929 42.0387 417.377 40.84C414.864 39.6027 412.931 37.8627 411.577 35.62C410.224 33.3773 409.547 30.7287 409.547 27.674C409.547 24.7353 410.185 22.164 411.461 19.96C412.776 17.7173 414.555 15.9773 416.797 14.74C419.079 13.464 421.669 12.826 424.569 12.826C426.696 12.826 428.629 13.174 430.369 13.87C432.109 14.5273 433.598 15.5133 434.835 16.828C436.073 18.104 437.001 19.6507 437.619 21.468C438.277 23.2853 438.605 25.3153 438.605 27.558C438.605 28.3313 438.393 28.9113 437.967 29.298C437.542 29.646 436.865 29.82 435.937 29.82H418.189V24.948H431.065L430.137 25.702C430.137 24.2713 429.944 23.1113 429.557 22.222C429.171 21.3327 428.591 20.656 427.817 20.192C427.083 19.728 426.155 19.496 425.033 19.496C423.835 19.496 422.791 19.786 421.901 20.366C421.051 20.9073 420.393 21.7193 419.929 22.802C419.465 23.8847 419.233 25.238 419.233 26.862V27.384C419.233 30.1293 419.833 32.1013 421.031 33.3C422.269 34.46 424.163 35.04 426.715 35.04C427.566 35.04 428.533 34.9433 429.615 34.75C430.737 34.518 431.8 34.2087 432.805 33.822C433.811 33.4353 434.681 33.3773 435.415 33.648C436.15 33.88 436.711 34.3053 437.097 34.924C437.523 35.504 437.755 36.1807 437.793 36.954C437.832 37.6887 437.658 38.4233 437.271 39.158C436.885 39.854 436.247 40.3953 435.357 40.782C434.004 41.4007 432.554 41.8647 431.007 42.174C429.499 42.4833 427.972 42.638 426.425 42.638Z" fill="#FFFAFB"/>
<path d="M147.106 91C145.405 91 144.071 90.536 143.104 89.608C142.176 88.6413 141.712 87.3073 141.712 85.606V55.446C141.712 53.706 142.176 52.372 143.104 51.444C144.032 50.516 145.347 50.052 147.048 50.052C148.788 50.052 150.103 50.516 150.992 51.444C151.92 52.372 152.384 53.706 152.384 55.446V82.126H166.536C168.005 82.126 169.127 82.5127 169.9 83.286C170.712 84.0207 171.118 85.1033 171.118 86.534C171.118 87.9647 170.712 89.0667 169.9 89.84C169.127 90.6133 168.005 91 166.536 91H147.106Z" fill="#FFFAFB"/>
<path d="M183.528 91.522C181.904 91.522 180.647 91.0387 179.758 90.072C178.868 89.1053 178.424 87.7133 178.424 85.896V67.568C178.424 65.7507 178.868 64.3587 179.758 63.392C180.647 62.4253 181.904 61.942 183.528 61.942C185.19 61.942 186.466 62.4253 187.356 63.392C188.284 64.3587 188.748 65.7507 188.748 67.568V85.896C188.748 87.7133 188.303 89.1053 187.414 90.072C186.524 91.0387 185.229 91.522 183.528 91.522ZM187.24 58.288C186.698 58.984 186.041 59.39 185.268 59.506C184.533 59.5833 183.837 59.448 183.18 59.1C182.522 58.7133 182.039 58.1913 181.73 57.534C181.459 56.838 181.517 56.0647 181.904 55.214L185.732 47.5C186.196 46.572 186.814 45.9727 187.588 45.702C188.361 45.4313 189.134 45.412 189.908 45.644C190.72 45.876 191.416 46.282 191.996 46.862C192.614 47.442 192.982 48.1187 193.098 48.892C193.252 49.6653 193.02 50.458 192.402 51.27L187.24 58.288Z" fill="#FFFAFB"/>
<path d="M203.32 91.522C201.696 91.522 200.44 91.0773 199.55 90.188C198.661 89.2987 198.216 88.0033 198.216 86.302V67.104C198.216 65.4413 198.642 64.1653 199.492 63.276C200.382 62.3867 201.638 61.942 203.262 61.942C204.886 61.942 206.124 62.3867 206.974 63.276C207.825 64.1653 208.25 65.4413 208.25 67.104V69.83L207.612 67.452C208.54 65.6347 209.855 64.2427 211.556 63.276C213.296 62.3093 215.268 61.826 217.472 61.826C219.754 61.826 221.629 62.2707 223.098 63.16C224.568 64.0107 225.67 65.364 226.404 67.22C227.139 69.0373 227.506 71.338 227.506 74.122V86.302C227.506 88.0033 227.062 89.2987 226.172 90.188C225.283 91.0773 224.007 91.522 222.344 91.522C220.682 91.522 219.406 91.0773 218.516 90.188C217.627 89.2987 217.182 88.0033 217.182 86.302V74.528C217.182 72.788 216.873 71.5507 216.254 70.816C215.674 70.0813 214.804 69.714 213.644 69.714C212.098 69.714 210.86 70.2167 209.932 71.222C209.004 72.1887 208.54 73.5033 208.54 75.166V86.302C208.54 89.782 206.8 91.522 203.32 91.522Z" fill="#FFFAFB"/>
<path d="M251.022 102.078C248.895 102.078 246.904 101.923 245.048 101.614C243.192 101.343 241.587 100.937 240.234 100.396C239.113 100.009 238.32 99.4487 237.856 98.714C237.392 97.9793 237.179 97.206 237.218 96.394C237.257 95.582 237.469 94.8473 237.856 94.19C238.281 93.5327 238.842 93.0493 239.538 92.74C240.234 92.4693 241.007 92.4887 241.858 92.798C243.559 93.494 245.106 93.9387 246.498 94.132C247.89 94.364 249.069 94.48 250.036 94.48C252.395 94.48 254.154 93.9773 255.314 92.972C256.513 92.0053 257.112 90.478 257.112 88.39V84.736H257.576C256.996 86.36 255.817 87.694 254.038 88.738C252.259 89.7433 250.326 90.246 248.238 90.246C245.686 90.246 243.463 89.666 241.568 88.506C239.673 87.3073 238.185 85.6447 237.102 83.518C236.058 81.3913 235.536 78.8973 235.536 76.036C235.536 73.8707 235.845 71.918 236.464 70.178C237.083 68.438 237.933 66.9493 239.016 65.712C240.137 64.4747 241.471 63.5273 243.018 62.87C244.603 62.174 246.343 61.826 248.238 61.826C250.403 61.826 252.337 62.3287 254.038 63.334C255.778 64.3393 256.938 65.654 257.518 67.278L256.938 69.656V67.104C256.938 65.4413 257.383 64.1653 258.272 63.276C259.2 62.3867 260.476 61.942 262.1 61.942C263.724 61.942 264.961 62.3867 265.812 63.276C266.701 64.1653 267.146 65.4413 267.146 67.104V87.172C267.146 92.1213 265.754 95.8333 262.97 98.308C260.186 100.821 256.203 102.078 251.022 102.078ZM251.428 82.648C252.588 82.648 253.574 82.3967 254.386 81.894C255.198 81.3527 255.836 80.5987 256.3 79.632C256.764 78.6267 256.996 77.428 256.996 76.036C256.996 73.948 256.493 72.324 255.488 71.164C254.483 70.004 253.129 69.424 251.428 69.424C250.345 69.424 249.379 69.6947 248.528 70.236C247.677 70.7387 247.02 71.4927 246.556 72.498C246.131 73.4647 245.918 74.644 245.918 76.036C245.918 78.124 246.421 79.748 247.426 80.908C248.431 82.068 249.765 82.648 251.428 82.648Z" fill="#FFFAFB"/>
<path d="M287.329 91.638C284.854 91.638 282.824 91.1933 281.239 90.304C279.653 89.376 278.455 88.0033 277.643 86.186C276.869 84.3687 276.483 82.068 276.483 79.284V67.104C276.483 65.4027 276.927 64.1267 277.817 63.276C278.706 62.3867 279.982 61.942 281.645 61.942C283.307 61.942 284.583 62.3867 285.473 63.276C286.362 64.1267 286.807 65.4027 286.807 67.104V79.574C286.807 80.966 287.097 82.01 287.677 82.706C288.257 83.402 289.165 83.75 290.403 83.75C291.795 83.75 292.935 83.2473 293.825 82.242C294.714 81.2367 295.159 79.9027 295.159 78.24V67.104C295.159 65.4027 295.603 64.1267 296.493 63.276C297.382 62.3867 298.658 61.942 300.321 61.942C301.983 61.942 303.259 62.3867 304.149 63.276C305.038 64.1267 305.483 65.4027 305.483 67.104V86.302C305.483 89.782 303.82 91.522 300.495 91.522C298.871 91.522 297.614 91.0773 296.725 90.188C295.835 89.2987 295.391 88.0033 295.391 86.302V82.938L296.319 85.78C295.468 87.6747 294.269 89.1247 292.723 90.13C291.215 91.1353 289.417 91.638 287.329 91.638Z" fill="#FFFAFB"/>
<path d="M324.889 91.638C322.685 91.638 320.732 91.232 319.031 90.42C317.368 89.608 316.053 88.506 315.087 87.114C314.159 85.6833 313.695 84.0593 313.695 82.242C313.695 80.154 314.236 78.5107 315.319 77.312C316.401 76.1133 318.141 75.2627 320.539 74.76C322.936 74.2187 326.126 73.948 330.109 73.948H333.299V78.82H330.109C328.601 78.82 327.344 78.936 326.339 79.168C325.372 79.3613 324.657 79.69 324.193 80.154C323.729 80.5793 323.497 81.14 323.497 81.836C323.497 82.7253 323.806 83.46 324.425 84.04C325.082 84.62 326.01 84.91 327.209 84.91C328.175 84.91 329.026 84.6973 329.761 84.272C330.534 83.8467 331.153 83.2667 331.617 82.532C332.081 81.7587 332.313 80.8693 332.313 79.864V73.136C332.313 71.744 331.945 70.758 331.211 70.178C330.515 69.598 329.297 69.308 327.557 69.308C326.629 69.308 325.585 69.424 324.425 69.656C323.265 69.8493 321.969 70.2167 320.539 70.758C319.495 71.1447 318.605 71.2027 317.871 70.932C317.136 70.6613 316.556 70.1973 316.131 69.54C315.744 68.8827 315.551 68.1673 315.551 67.394C315.589 66.6207 315.841 65.886 316.305 65.19C316.807 64.494 317.561 63.9527 318.567 63.566C320.423 62.87 322.124 62.406 323.671 62.174C325.256 61.942 326.706 61.826 328.021 61.826C331.191 61.826 333.801 62.29 335.851 63.218C337.939 64.1073 339.485 65.4993 340.491 67.394C341.535 69.25 342.057 71.6473 342.057 74.586V86.302C342.057 88.0033 341.651 89.2987 340.839 90.188C340.027 91.0773 338.847 91.522 337.301 91.522C335.715 91.522 334.497 91.0773 333.647 90.188C332.835 89.2987 332.429 88.0033 332.429 86.302V84.794L332.777 85.606C332.583 86.8433 332.139 87.9067 331.443 88.796C330.747 89.6853 329.838 90.3813 328.717 90.884C327.595 91.3867 326.319 91.638 324.889 91.638Z" fill="#FFFAFB"/>
<path d="M362.784 91.638C361.082 91.638 359.342 91.5027 357.564 91.232C355.824 91 354.238 90.5553 352.808 89.898C351.841 89.5113 351.145 88.9893 350.72 88.332C350.333 87.6747 350.14 86.9787 350.14 86.244C350.178 85.5093 350.391 84.852 350.778 84.272C351.203 83.6533 351.744 83.228 352.402 82.996C353.098 82.7253 353.871 82.7447 354.722 83.054C356.346 83.634 357.796 84.0593 359.072 84.33C360.386 84.562 361.643 84.678 362.842 84.678C364.272 84.678 365.297 84.4847 365.916 84.098C366.534 83.6727 366.844 83.1313 366.844 82.474C366.844 81.894 366.631 81.4493 366.206 81.14C365.819 80.8307 365.258 80.618 364.524 80.502L358.086 79.458C355.688 79.0327 353.832 78.1627 352.518 76.848C351.203 75.4947 350.546 73.7353 350.546 71.57C350.546 69.5593 351.106 67.8387 352.228 66.408C353.388 64.9387 354.954 63.8173 356.926 63.044C358.936 62.232 361.237 61.826 363.828 61.826C365.568 61.826 367.153 61.9613 368.584 62.232C370.014 62.464 371.406 62.9087 372.76 63.566C373.61 63.914 374.21 64.4167 374.558 65.074C374.906 65.7313 375.041 66.4273 374.964 67.162C374.886 67.858 374.635 68.5153 374.21 69.134C373.823 69.714 373.282 70.12 372.586 70.352C371.89 70.5453 371.078 70.4873 370.15 70.178C368.874 69.6753 367.733 69.308 366.728 69.076C365.761 68.844 364.852 68.728 364.002 68.728C362.416 68.728 361.295 68.9407 360.638 69.366C359.98 69.7913 359.652 70.3327 359.652 70.99C359.652 71.4927 359.826 71.918 360.174 72.266C360.522 72.5753 361.063 72.788 361.798 72.904L368.236 74.006C370.71 74.3927 372.605 75.2433 373.92 76.558C375.273 77.834 375.95 79.574 375.95 81.778C375.95 84.91 374.751 87.346 372.354 89.086C369.956 90.7873 366.766 91.638 362.784 91.638Z" fill="#FFFAFB"/>
<path fill-rule="evenodd" clip-rule="evenodd" d="M16.0683 14.1707C14.4897 14.1707 13.1707 15.4897 13.1707 17.0683V53.3258L20.8947 45.6019C22.1297 44.3669 23.8047 43.6731 25.5512 43.6731H54C54.7685 43.6731 55.5055 43.3678 56.0489 42.8244C56.5923 42.281 56.8976 41.544 56.8976 40.7755V17.0683C56.8976 16.2998 56.5923 15.5628 56.0489 15.0194C55.5055 14.476 54.7685 14.1707 54 14.1707H16.0683ZM0 17.0683C0 8.21568 7.21569 1 16.0683 1H54C58.2616 1 62.3486 2.6929 65.362 5.70629C68.3754 8.71966 70.0683 12.8067 70.0683 17.0683V40.7755C70.0683 45.0371 68.3754 49.1242 65.362 52.1375C62.3486 55.1509 58.2616 56.8438 54 56.8438H28.279L11.2419 73.8808C9.35852 75.7642 6.52604 76.3276 4.06526 75.3083C1.60447 74.2891 0 71.8878 0 69.2243V17.0683ZM75.8634 40.7755C75.8634 37.1386 78.8118 34.1902 82.4488 34.1902H91.9317C96.1933 34.1902 100.28 35.8831 103.294 38.8965C106.307 41.9099 108 45.9969 108 50.2585V102.414C108 105.078 106.396 107.479 103.935 108.499C101.474 109.518 98.6415 108.954 96.7581 107.071L79.721 90.034H54C49.7384 90.034 45.6514 88.3411 42.638 85.3277C39.6246 82.3143 37.9317 78.2273 37.9317 73.9657V69.2243C37.9317 65.5873 40.8801 62.6389 44.5171 62.6389C48.1541 62.6389 51.1024 65.5873 51.1024 69.2243V73.9657C51.1024 74.7342 51.4077 75.4712 51.9511 76.0146C52.4945 76.558 53.2315 76.8633 54 76.8633H82.4488C84.1953 76.8633 85.8703 77.5571 87.1053 78.7921L94.8293 86.516V50.2585C94.8293 49.49 94.524 48.753 93.9806 48.2096C93.4372 47.6662 92.7002 47.3609 91.9317 47.3609H82.4488C78.8118 47.3609 75.8634 44.4125 75.8634 40.7755Z" fill="#F0A202"/>
</svg>
